<svg xmlns="http://www.w3.org/2000/svg" version="1.1" xmlns:xlink="http://www.w3.org/1999/xlink" xmlns:svgjs="http://svgjs.dev/svgjs" width="1000" height="623" viewBox="0 0 1000 623"><g transform="matrix(1,0,0,1,-0.606048747063312,0.2522267206477409)"><svg viewBox="0 0 396 247" data-background-color="#ffffff" preserveAspectRatio="xMidYMid meet" height="623" width="1000" xmlns="http://www.w3.org/2000/svg" xmlns:xlink="http://www.w3.org/1999/xlink"><g id="tight-bounds" transform="matrix(1,0,0,1,0.2399953038370768,-0.09999999999999432)"><svg viewBox="0 0 395.52 247.2" height="247.2" width="395.52"><g><svg></svg></g><g><svg viewBox="0 0 395.52 247.2" height="247.2" width="395.52"><g><g><path xmlns="http://www.w3.org/2000/svg" d="M56.132 196.964c-9.753 0-18.739-1.708-26.958-5.122-8.219-3.386-14.875-8.552-19.969-15.498-5.094-6.946-7.828-15.773-8.205-26.48h25.178c0 5.412 1.346 9.854 4.038 13.327 2.663 3.473 6.251 6.063 10.765 7.77 4.544 1.708 9.521 2.561 14.934 2.562 5.209 0 9.854-0.695 13.935-2.084 4.11-1.36 7.336-3.328 9.68-5.904 2.344-2.576 3.516-5.629 3.517-9.16 0-3.76-0.91-6.868-2.731-9.323h29.869c0.575 2.658 0.862 5.476 0.862 8.455 0 8.451-2.127 15.773-6.382 21.966-4.283 6.193-10.505 10.983-18.666 14.369-8.19 3.415-18.146 5.122-29.867 5.122zM3.605 88.654c0-11.432 4.529-20.693 13.587-27.783 9.029-7.09 21.648-10.636 37.855-10.635 15.773 0 27.971 3.675 36.595 11.026 8.595 7.322 13.472 17.538 14.629 30.648h-25.178c-0.926-5.586-3.458-10.057-7.597-13.414-4.11-3.357-10.259-5.036-18.449-5.036-7.235 0-12.951 1.505-17.148 4.515-4.196 2.981-6.295 6.758-6.294 11.33 0 3.907 1.317 7.004 3.95 9.29 0.615 0.521 1.307 1.039 2.076 1.553l-32.45 0c-1.051-3.445-1.576-7.276-1.576-11.494zM194.526 196.964c-9.782 0-18.782-1.708-27.002-5.122-8.219-3.386-14.875-8.552-19.969-15.498-5.094-6.946-7.814-15.773-8.161-26.48h25.135c0 5.412 1.346 9.854 4.037 13.327 2.663 3.473 6.266 6.063 10.809 7.77 4.515 1.708 9.478 2.561 14.89 2.562 5.238 0 9.898-0.695 13.979-2.084 4.081-1.36 7.293-3.328 9.637-5.904 2.373-2.576 3.56-5.629 3.56-9.16 0-3.76-0.91-6.868-2.731-9.323h29.864c0.578 2.658 0.867 5.476 0.867 8.455 0 8.451-2.142 15.773-6.425 21.966-4.254 6.193-10.476 10.983-18.667 14.369-8.161 3.415-18.102 5.122-29.823 5.122zM141.999 88.654c0-11.432 4.515-20.693 13.544-27.783 9.058-7.09 21.691-10.636 37.898-10.635 15.773 0 27.957 3.675 36.552 11.026 8.624 7.322 13.515 17.538 14.673 30.648h-25.179c-0.955-5.586-3.487-10.057-7.597-13.414-4.139-3.357-10.288-5.036-18.449-5.036-7.235 0-12.951 1.505-17.148 4.515-4.225 2.981-6.338 6.758-6.338 11.33 0 3.907 1.331 7.004 3.994 9.29 0.608 0.521 1.294 1.039 2.058 1.553l-32.432 0c-1.051-3.445-1.576-7.276-1.576-11.494zM295.543 193.926h-27.132l15.962-46.874 94.836 0 15.311 46.874h-26.915l-9.767-30.388h-52.31zM316.38 53.057h32.124l15.383 47.091-26.502 0-5.377-16.486-5.436 16.486-26.227 0z" fill="#d90d32" fill-rule="nonzero" stroke="none" stroke-width="1" stroke-linecap="butt" stroke-linejoin="miter" stroke-miterlimit="10" stroke-dasharray="" stroke-dashoffset="0" font-family="none" font-weight="none" font-size="none" text-anchor="none" style="mix-blend-mode: normal" data-fill-palette-color="tertiary"></path></g></g><g transform="matrix(1,0,0,1,0,103.47702290938179)"><svg viewBox="0 0 395.52 40.2459541812364" height="40.2459541812364" width="395.52"><g><svg viewBox="0 0 395.52 40.2459541812364" height="40.2459541812364" width="395.52"><g><svg viewBox="0 0 395.52 40.2459541812364" height="40.2459541812364" width="395.52"><g><svg viewBox="0 0 395.52 40.2459541812364" height="40.2459541812364" width="395.52"><g><svg viewBox="0 0 395.52 40.2459541812364" height="40.2459541812364" width="395.52"><g><svg viewBox="0 0 395.52 22.816149778128988" height="22.816149778128988" width="395.52"><g transform="matrix(1,0,0,1,0,0)"><svg width="395.52" viewBox="3.25 -35.599998474121094 822.47998046875 47.44999694824219" height="22.816149778128988" data-palette-color="#1e1d40"><path d="M15.95 0.7L15.95 0.7Q12.58 0.7 9.74-0.48 6.9-1.65 5.14-4.05 3.38-6.45 3.25-10.15L3.25-10.15 9.05-10.15Q9.05-8.28 9.98-7.08 10.9-5.88 12.46-5.29 14.03-4.7 15.9-4.7L15.9-4.7Q17.7-4.7 19.11-5.18 20.53-5.65 21.34-6.54 22.15-7.43 22.15-8.65L22.15-8.65Q22.15-10.28 21.16-11.2 20.18-12.13 18-12.9L18-12.9 11.6-15.45Q7.85-16.93 5.85-18.88 3.85-20.83 3.85-24.25L3.85-24.25Q3.85-28.2 6.98-30.65 10.1-33.1 15.7-33.1L15.7-33.1Q21.15-33.1 24.13-30.56 27.1-28.03 27.5-23.5L27.5-23.5 21.7-23.5Q21.38-25.43 19.95-26.59 18.53-27.75 15.7-27.75L15.7-27.75Q13.2-27.75 11.75-26.71 10.3-25.68 10.3-24.1L10.3-24.1Q10.3-22.75 11.21-21.96 12.13-21.18 14.05-20.45L14.05-20.45 21.15-17.7Q24.75-16.3 26.68-14.18 28.6-12.05 28.6-8.85L28.6-8.85Q28.6-5.93 27.13-3.79 25.65-1.65 22.83-0.48 20 0.7 15.95 0.7ZM39.97-28.7L39.97-28.7Q38.25-28.7 37.28-29.61 36.32-30.53 36.32-32.15L36.32-32.15Q36.32-33.73 37.28-34.66 38.25-35.6 39.97-35.6L39.97-35.6Q41.67-35.6 42.65-34.66 43.62-33.73 43.62-32.15L43.62-32.15Q43.62-30.53 42.65-29.61 41.67-28.7 39.97-28.7ZM42.92 0L37.02 0 37.02-24.35 42.92-24.35 42.92 0ZM91.82 0L85.87 0 85.87-14.2Q85.87-16.9 84.57-18.28 83.27-19.65 81.17-19.65L81.17-19.65Q78.52-19.65 77-17.5 75.47-15.35 75.47-11L75.47-11 73.02-11Q73.02-14.83 73.73-17.49 74.45-20.15 75.76-21.79 77.07-23.43 78.84-24.19 80.62-24.95 82.77-24.95L82.77-24.95Q85.75-24.95 87.76-23.61 89.77-22.28 90.8-19.85 91.82-17.43 91.82-14.2L91.82-14.2 91.82 0ZM58.82 0L52.92 0 52.92-24.25 58.07-24.25 58.72-20.1Q59.92-22.53 61.9-23.74 63.87-24.95 66.42-24.95L66.42-24.95Q69.42-24.95 71.43-23.61 73.45-22.28 74.46-19.85 75.47-17.43 75.47-14.2L75.47-14.2 75.47 0 69.57 0 69.57-14.2Q69.57-16.9 68.27-18.28 66.97-19.65 64.87-19.65L64.87-19.65Q63.1-19.65 61.73-18.68 60.37-17.7 59.6-15.74 58.82-13.78 58.82-10.85L58.82-10.85 58.82 0ZM112.52 0.7L112.52 0.7Q109.84 0.7 107.97-0.45 106.09-1.6 105.11-3.94 104.12-6.28 104.12-9.8L104.12-9.8 106.27-9.8Q106.27-8.18 107.02-7.03 107.77-5.88 109-5.26 110.24-4.65 111.67-4.65L111.67-4.65Q113.14-4.65 114.58-5.46 116.02-6.28 116.97-7.94 117.92-9.6 117.92-12.15L117.92-12.15Q117.92-14.48 117.12-16.16 116.32-17.85 114.93-18.75 113.54-19.65 111.77-19.65L111.77-19.65Q110.27-19.65 109.02-18.98 107.77-18.3 107.02-17.01 106.27-15.73 106.27-13.9L106.27-13.9 104.12-13.9Q104.12-17.73 105.29-20.16 106.47-22.6 108.44-23.78 110.42-24.95 112.77-24.95L112.77-24.95Q115.64-24.95 118.18-23.43 120.72-21.9 122.29-19.04 123.87-16.18 123.87-12.15L123.87-12.15Q123.87-8.1 122.27-5.23 120.67-2.35 118.08-0.83 115.49 0.7 112.52 0.7ZM106.27 11.85L100.37 11.85 100.37-24.25 105.22-24.25 106.27-18.25 106.27 11.85ZM136.77 0L130.87 0 130.87-34.3 136.77-34.3 136.77 0ZM155.14 0.7L155.14 0.7Q152.04 0.7 149.46-0.9 146.89-2.5 145.34-5.39 143.79-8.28 143.79-12.15L143.79-12.15Q143.79-16.15 145.32-19.03 146.86-21.9 149.44-23.43 152.01-24.95 155.14-24.95L155.14-24.95Q158.04-24.95 160.15-23.79 162.26-22.63 163.55-20.64 164.84-18.65 165.29-16.15 165.74-13.65 165.34-11L165.34-11 148.49-11 148.49-14.2 161.16-14.2 160.01-13.45Q160.09-14.63 159.9-15.83 159.71-17.03 159.19-18.03 158.66-19.03 157.7-19.64 156.74-20.25 155.24-20.25L155.24-20.25Q153.44-20.25 152.19-19.35 150.94-18.45 150.29-16.9 149.64-15.35 149.64-13.4L149.64-13.4 149.64-11.05Q149.64-9 150.25-7.43 150.86-5.85 152.07-4.95 153.29-4.05 155.14-4.05L155.14-4.05Q156.86-4.05 158.04-4.85 159.21-5.65 159.54-7.25L159.54-7.25 165.49-7.25Q165.11-4.9 163.72-3.11 162.34-1.33 160.14-0.31 157.94 0.7 155.14 0.7ZM196.53 0.7L196.53 0.7Q193.16 0.7 190.32-0.48 187.48-1.65 185.72-4.05 183.96-6.45 183.83-10.15L183.83-10.15 189.63-10.15Q189.63-8.28 190.56-7.08 191.48-5.88 193.05-5.29 194.61-4.7 196.48-4.7L196.48-4.7Q198.28-4.7 199.7-5.18 201.11-5.65 201.92-6.54 202.73-7.43 202.73-8.65L202.73-8.65Q202.73-10.28 201.75-11.2 200.76-12.13 198.58-12.9L198.58-12.9 192.18-15.45Q188.43-16.93 186.43-18.88 184.43-20.83 184.43-24.25L184.43-24.25Q184.43-28.2 187.56-30.65 190.68-33.1 196.28-33.1L196.28-33.1Q201.73-33.1 204.71-30.56 207.68-28.03 208.08-23.5L208.08-23.5 202.28-23.5Q201.96-25.43 200.53-26.59 199.11-27.75 196.28-27.75L196.28-27.75Q193.78-27.75 192.33-26.71 190.88-25.68 190.88-24.1L190.88-24.1Q190.88-22.75 191.8-21.96 192.71-21.18 194.63-20.45L194.63-20.45 201.73-17.7Q205.33-16.3 207.26-14.18 209.18-12.05 209.18-8.85L209.18-8.85Q209.18-5.93 207.71-3.79 206.23-1.65 203.41-0.48 200.58 0.7 196.53 0.7ZM225.31 0.7L225.31 0.7Q223.16 0.7 221.37-0.1 219.58-0.9 218.52-2.55 217.46-4.2 217.46-6.75L217.46-6.75 217.46-30.7 223.36-30.7 223.36-6.95Q223.36-3.95 226.21-3.95L226.21-3.95Q227.08-3.95 227.96-4.15 228.83-4.35 229.96-4.75L229.96-4.75 230.81-0.6Q229.41-0.05 228.08 0.33 226.76 0.7 225.31 0.7ZM229.96-20.35L214.06-20.35 214.06-24.25 229.96-24.25 229.96-20.35ZM252.98 0L252.98-24.35 258.88-24.35 258.88 0 252.98 0ZM236.33-8.85L236.33-24.35 242.23-24.35 242.23-9.45Q242.23-7.08 243.4-5.89 244.58-4.7 246.63-4.7L246.63-4.7Q248.38-4.7 249.81-5.61 251.25-6.53 252.12-8.31 252.98-10.1 252.98-12.75L252.98-12.75 254.58-12.75Q254.58-8.3 253.43-5.38 252.28-2.45 250.25-1 248.23 0.45 245.58 0.45L245.58 0.45Q242.98 0.45 240.88-0.48 238.78-1.4 237.55-3.45 236.33-5.5 236.33-8.85L236.33-8.85ZM277.13 0.7L277.13 0.7Q274.08 0.7 271.56-0.91 269.05-2.53 267.56-5.44 266.08-8.35 266.08-12.25L266.08-12.25Q266.08-16.1 267.51-18.96 268.95-21.83 271.36-23.39 273.78-24.95 276.73-24.95L276.73-24.95Q279.43-24.95 281.4-23.66 283.38-22.38 284.43-19.85 285.48-17.32 285.48-13.65L285.48-13.65 283.63-13.65Q283.63-15.55 282.85-16.89 282.08-18.23 280.81-18.94 279.55-19.65 278.08-19.65L278.08-19.65Q276.3-19.65 274.94-18.73 273.58-17.8 272.8-16.14 272.03-14.48 272.03-12.25L272.03-12.25Q272.03-9.95 272.8-8.25 273.58-6.55 274.94-5.6 276.3-4.65 278.03-4.65L278.03-4.65Q279.43-4.65 280.71-5.41 282-6.18 282.81-7.55 283.63-8.93 283.63-10.75L283.63-10.75 285.48-10.75Q285.48-6.93 284.34-4.39 283.2-1.85 281.3-0.58 279.4 0.7 277.13 0.7ZM289.58 0L284.73 0 283.63-6 283.63-34.3 289.58-34.3 289.58 0ZM307.92 0.7L307.92 0.7Q304.82 0.7 302.25-0.9 299.67-2.5 298.12-5.39 296.57-8.28 296.57-12.15L296.57-12.15Q296.57-16.15 298.11-19.03 299.65-21.9 302.22-23.43 304.8-24.95 307.92-24.95L307.92-24.95Q310.82-24.95 312.94-23.79 315.05-22.63 316.34-20.64 317.62-18.65 318.07-16.15 318.52-13.65 318.12-11L318.12-11 301.27-11 301.27-14.2 313.95-14.2 312.8-13.45Q312.87-14.63 312.69-15.83 312.5-17.03 311.97-18.03 311.45-19.03 310.49-19.64 309.52-20.25 308.02-20.25L308.02-20.25Q306.22-20.25 304.97-19.35 303.72-18.45 303.07-16.9 302.42-15.35 302.42-13.4L302.42-13.4 302.42-11.05Q302.42-9 303.04-7.43 303.65-5.85 304.86-4.95 306.07-4.05 307.92-4.05L307.92-4.05Q309.65-4.05 310.82-4.85 312-5.65 312.32-7.25L312.32-7.25 318.27-7.25Q317.9-4.9 316.51-3.11 315.12-1.33 312.92-0.31 310.72 0.7 307.92 0.7ZM347.92 0L342.02 0 342.02-14.2Q342.02-16.9 340.72-18.28 339.42-19.65 337.32-19.65L337.32-19.65Q335.55-19.65 334.18-18.68 332.82-17.7 332.05-15.74 331.27-13.78 331.27-10.85L331.27-10.85 329.32-10.85Q329.32-15.58 330.5-18.71 331.67-21.85 333.82-23.4 335.97-24.95 338.87-24.95L338.87-24.95Q341.87-24.95 343.88-23.61 345.9-22.28 346.91-19.85 347.92-17.43 347.92-14.2L347.92-14.2 347.92 0ZM331.27 0L325.37 0 325.37-24.25 330.52-24.25 331.27-19.45 331.27 0ZM364.72 0.7L364.72 0.7Q362.57 0.7 360.78-0.1 358.99-0.9 357.93-2.55 356.87-4.2 356.87-6.75L356.87-6.75 356.87-30.7 362.77-30.7 362.77-6.95Q362.77-3.95 365.62-3.95L365.62-3.95Q366.49-3.95 367.37-4.15 368.24-4.35 369.37-4.75L369.37-4.75 370.22-0.6Q368.82-0.05 367.49 0.33 366.17 0.7 364.72 0.7ZM369.37-20.35L353.47-20.35 353.47-24.25 369.37-24.25 369.37-20.35ZM385.29 0.7L385.29 0.7Q381.79 0.7 379.28-0.26 376.77-1.23 375.42-3.04 374.07-4.85 374.04-7.4L374.04-7.4 379.49-7.4Q379.57-5.6 380.92-4.78 382.27-3.95 384.59-3.95L384.59-3.95Q385.87-3.95 386.85-4.33 387.84-4.7 388.39-5.35 388.94-6 388.94-6.8L388.94-6.8Q388.94-7.83 388.2-8.41 387.47-9 385.84-9.5L385.84-9.5 380.54-11.4Q377.69-12.43 376.17-14.1 374.64-15.78 374.64-18.1L374.64-18.1Q374.64-21.18 377.43-23.06 380.22-24.95 384.89-24.95L384.89-24.95Q389.54-24.95 392.08-22.91 394.62-20.88 394.69-17.75L394.69-17.75 389.14-17.75Q389.02-18.95 387.99-19.65 386.97-20.35 384.89-20.35L384.89-20.35Q383.02-20.35 381.95-19.59 380.89-18.82 380.89-17.8L380.89-17.8Q380.89-16.07 383.84-15.2L383.84-15.2 389.59-13.05Q392.39-12.1 393.94-10.6 395.49-9.1 395.49-6.8L395.49-6.8Q395.49-4.88 394.2-3.16 392.92-1.45 390.62-0.38 388.32 0.7 385.29 0.7ZM417.96 0L411.71 0 422.76-32.45 430.16-32.45 440.76 0 434.56 0 432.31-7 420.26-7 417.96 0ZM426.36-25.4L421.76-11.45 430.91-11.45 426.36-25.4ZM455.73 0.7L455.73 0.7Q452.68 0.7 450.07-0.89 447.46-2.48 445.84-5.36 444.23-8.25 444.23-12.15L444.23-12.15Q444.23-16.28 445.84-19.14 447.46-22 450.07-23.48 452.68-24.95 455.73-24.95L455.73-24.95Q458.11-24.95 459.92-24.19 461.73-23.43 463.01-22.14 464.28-20.85 465.01-19.28 465.73-17.7 465.93-16.1L465.93-16.1 459.98-15.95Q459.58-17.55 458.5-18.6 457.41-19.65 455.68-19.65L455.68-19.65Q454.26-19.65 453.01-18.86 451.76-18.07 450.97-16.43 450.18-14.78 450.18-12.15L450.18-12.15Q450.18-9.65 450.92-7.99 451.66-6.33 452.91-5.49 454.16-4.65 455.68-4.65L455.68-4.65Q457.93-4.65 458.96-5.74 459.98-6.83 459.98-8.65L459.98-8.65 465.93-8.65Q465.93-6.08 464.76-3.95 463.58-1.83 461.31-0.56 459.03 0.7 455.73 0.7ZM482.21 0.7L482.21 0.7Q479.16 0.7 476.54-0.89 473.93-2.48 472.32-5.36 470.71-8.25 470.71-12.15L470.71-12.15Q470.71-16.28 472.32-19.14 473.93-22 476.54-23.48 479.16-24.95 482.21-24.95L482.21-24.95Q484.58-24.95 486.39-24.19 488.21-23.43 489.48-22.14 490.75-20.85 491.48-19.28 492.21-17.7 492.41-16.1L492.41-16.1 486.46-15.95Q486.06-17.55 484.97-18.6 483.88-19.65 482.16-19.65L482.16-19.65Q480.73-19.65 479.48-18.86 478.23-18.07 477.44-16.43 476.66-14.78 476.66-12.15L476.66-12.15Q476.66-9.65 477.39-7.99 478.13-6.33 479.38-5.49 480.63-4.65 482.16-4.65L482.16-4.65Q484.41-4.65 485.43-5.74 486.46-6.83 486.46-8.65L486.46-8.65 492.41-8.65Q492.41-6.08 491.23-3.95 490.06-1.83 487.78-0.56 485.5 0.7 482.21 0.7ZM509.03 0.7L509.03 0.7Q505.7 0.7 503.02-0.73 500.33-2.15 498.75-4.99 497.18-7.83 497.18-12.1L497.18-12.1Q497.18-16.45 498.75-19.3 500.33-22.15 503.02-23.55 505.7-24.95 509.03-24.95L509.03-24.95Q512.3-24.95 514.97-23.55 517.63-22.15 519.2-19.3 520.78-16.45 520.78-12.1L520.78-12.1Q520.78-7.83 519.2-4.99 517.63-2.15 514.97-0.73 512.3 0.7 509.03 0.7ZM508.83-4.45L508.83-4.45Q510.58-4.45 511.94-5.31 513.3-6.18 514.09-7.88 514.88-9.58 514.88-12.1L514.88-12.1Q514.88-15.95 513.37-17.9 511.85-19.85 509.23-19.85L509.23-19.85Q507.45-19.85 506.08-18.99 504.7-18.13 503.92-16.4 503.13-14.68 503.13-12.1L503.13-12.1Q503.13-8.3 504.67-6.38 506.2-4.45 508.83-4.45ZM566.67 0L560.73 0 560.73-14.2Q560.73-16.9 559.42-18.28 558.13-19.65 556.02-19.65L556.02-19.65Q553.38-19.65 551.85-17.5 550.33-15.35 550.33-11L550.33-11 547.88-11Q547.88-14.83 548.59-17.49 549.3-20.15 550.61-21.79 551.92-23.43 553.7-24.19 555.48-24.95 557.63-24.95L557.63-24.95Q560.6-24.95 562.61-23.61 564.63-22.28 565.65-19.85 566.67-17.43 566.67-14.2L566.67-14.2 566.67 0ZM533.67 0L527.77 0 527.77-24.25 532.92-24.25 533.58-20.1Q534.77-22.53 536.75-23.74 538.73-24.95 541.27-24.95L541.27-24.95Q544.27-24.95 546.29-23.61 548.3-22.28 549.31-19.85 550.33-17.43 550.33-14.2L550.33-14.2 550.33 0 544.42 0 544.42-14.2Q544.42-16.9 543.13-18.28 541.83-19.65 539.73-19.65L539.73-19.65Q537.95-19.65 536.59-18.68 535.23-17.7 534.45-15.74 533.67-13.78 533.67-10.85L533.67-10.85 533.67 0ZM614.12 0L608.17 0 608.17-14.2Q608.17-16.9 606.87-18.28 605.57-19.65 603.47-19.65L603.47-19.65Q600.82-19.65 599.3-17.5 597.77-15.35 597.77-11L597.77-11 595.32-11Q595.32-14.83 596.03-17.49 596.75-20.15 598.06-21.79 599.37-23.43 601.15-24.19 602.92-24.95 605.07-24.95L605.07-24.95Q608.05-24.95 610.06-23.61 612.07-22.28 613.1-19.85 614.12-17.43 614.12-14.2L614.12-14.2 614.12 0ZM581.12 0L575.22 0 575.22-24.25 580.37-24.25 581.02-20.1Q582.22-22.53 584.2-23.74 586.17-24.95 588.72-24.95L588.72-24.95Q591.72-24.95 593.74-23.61 595.75-22.28 596.76-19.85 597.77-17.43 597.77-14.2L597.77-14.2 597.77 0 591.87 0 591.87-14.2Q591.87-16.9 590.57-18.28 589.27-19.65 587.17-19.65L587.17-19.65Q585.4-19.65 584.03-18.68 582.67-17.7 581.9-15.74 581.12-13.78 581.12-10.85L581.12-10.85 581.12 0ZM632.22 0.7L632.22 0.7Q628.89 0.7 626.21-0.73 623.52-2.15 621.94-4.99 620.37-7.83 620.37-12.1L620.37-12.1Q620.37-16.45 621.94-19.3 623.52-22.15 626.21-23.55 628.89-24.95 632.22-24.95L632.22-24.95Q635.5-24.95 638.16-23.55 640.82-22.15 642.39-19.3 643.97-16.45 643.97-12.1L643.97-12.1Q643.97-7.83 642.39-4.99 640.82-2.15 638.16-0.73 635.5 0.7 632.22 0.7ZM632.02-4.45L632.02-4.45Q633.77-4.45 635.13-5.31 636.5-6.18 637.28-7.88 638.07-9.58 638.07-12.1L638.07-12.1Q638.07-15.95 636.56-17.9 635.04-19.85 632.42-19.85L632.42-19.85Q630.64-19.85 629.27-18.99 627.89-18.13 627.11-16.4 626.32-14.68 626.32-12.1L626.32-12.1Q626.32-8.3 627.86-6.38 629.39-4.45 632.02-4.45ZM659.92 0.7L659.92 0.7Q656.87 0.7 654.35-0.91 651.84-2.53 650.35-5.44 648.87-8.35 648.87-12.25L648.87-12.25Q648.87-16.1 650.3-18.96 651.74-21.83 654.15-23.39 656.57-24.95 659.52-24.95L659.52-24.95Q662.22-24.95 664.19-23.66 666.17-22.38 667.22-19.85 668.27-17.32 668.27-13.65L668.27-13.65 666.42-13.65Q666.42-15.55 665.64-16.89 664.87-18.23 663.6-18.94 662.34-19.65 660.87-19.65L660.87-19.65Q659.09-19.65 657.73-18.73 656.37-17.8 655.59-16.14 654.82-14.48 654.82-12.25L654.82-12.25Q654.82-9.95 655.59-8.25 656.37-6.55 657.73-5.6 659.09-4.65 660.82-4.65L660.82-4.65Q662.22-4.65 663.5-5.41 664.79-6.18 665.6-7.55 666.42-8.93 666.42-10.75L666.42-10.75 668.27-10.75Q668.27-6.93 667.13-4.39 665.99-1.85 664.09-0.58 662.19 0.7 659.92 0.7ZM672.37 0L667.52 0 666.42-6 666.42-34.3 672.37-34.3 672.37 0ZM702.26 0L697.11 0 696.36-5.9 696.36-15.65Q696.36-18.2 695.33-19.43 694.29-20.65 691.81-20.65L691.81-20.65Q690.39-20.65 689.34-20.23 688.29-19.8 687.73-19.01 687.16-18.23 687.16-17.1L687.16-17.1 680.71-17.1Q680.71-19.85 682.04-21.59 683.36-23.33 685.85-24.14 688.34-24.95 691.81-24.95L691.81-24.95Q694.96-24.95 697.31-23.94 699.66-22.93 700.96-20.83 702.26-18.73 702.26-15.45L702.26-15.45 702.26 0ZM689.16 0.7L689.16 0.7Q686.04 0.7 683.95-0.39 681.86-1.48 680.81-3.25 679.76-5.03 679.76-7.1L679.76-7.1Q679.76-9.4 680.98-10.96 682.19-12.53 684.41-13.31 686.64-14.1 689.66-14.1L689.66-14.1Q691.64-14.1 693.4-13.8 695.16-13.5 696.91-13L696.91-13 696.91-9.55Q695.54-10 693.91-10.25 692.29-10.5 690.86-10.5L690.86-10.5Q688.76-10.5 687.41-9.73 686.06-8.95 686.06-7.1L686.06-7.1Q686.06-5.75 687.16-4.78 688.26-3.8 690.66-3.8L690.66-3.8Q692.49-3.8 693.76-4.6 695.04-5.4 695.7-6.6 696.36-7.8 696.36-9L696.36-9 697.76-9Q697.76-6.38 696.79-4.16 695.81-1.95 693.9-0.63 691.99 0.7 689.16 0.7ZM719.11 0.7L719.11 0.7Q716.96 0.7 715.17-0.1 713.39-0.9 712.32-2.55 711.26-4.2 711.26-6.75L711.26-6.75 711.26-30.7 717.16-30.7 717.16-6.95Q717.16-3.95 720.01-3.95L720.01-3.95Q720.89-3.95 721.76-4.15 722.64-4.35 723.76-4.75L723.76-4.75 724.61-0.6Q723.21-0.05 721.89 0.33 720.56 0.7 719.11 0.7ZM723.76-20.35L707.86-20.35 707.86-24.25 723.76-24.25 723.76-20.35ZM734.08-28.7L734.08-28.7Q732.36-28.7 731.4-29.61 730.43-30.53 730.43-32.15L730.43-32.15Q730.43-33.73 731.4-34.66 732.36-35.6 734.08-35.6L734.08-35.6Q735.78-35.6 736.76-34.66 737.73-33.73 737.73-32.15L737.73-32.15Q737.73-30.53 736.76-29.61 735.78-28.7 734.08-28.7ZM737.03 0L731.13 0 731.13-24.35 737.03-24.35 737.03 0ZM756.58 0.7L756.58 0.7Q753.26 0.7 750.57-0.73 747.88-2.15 746.31-4.99 744.73-7.83 744.73-12.1L744.73-12.1Q744.73-16.45 746.31-19.3 747.88-22.15 750.57-23.55 753.26-24.95 756.58-24.95L756.58-24.95Q759.86-24.95 762.52-23.55 765.18-22.15 766.76-19.3 768.33-16.45 768.33-12.1L768.33-12.1Q768.33-7.83 766.76-4.99 765.18-2.15 762.52-0.73 759.86 0.7 756.58 0.7ZM756.38-4.45L756.38-4.45Q758.13-4.45 759.49-5.31 760.86-6.18 761.64-7.88 762.43-9.58 762.43-12.1L762.43-12.1Q762.43-15.95 760.92-17.9 759.41-19.85 756.78-19.85L756.78-19.85Q755.01-19.85 753.63-18.99 752.26-18.13 751.47-16.4 750.68-14.68 750.68-12.1L750.68-12.1Q750.68-8.3 752.22-6.38 753.76-4.45 756.38-4.45ZM797.88 0L791.98 0 791.98-14.2Q791.98-16.9 790.68-18.28 789.38-19.65 787.28-19.65L787.28-19.65Q785.5-19.65 784.14-18.68 782.78-17.7 782-15.74 781.23-13.78 781.23-10.85L781.23-10.85 779.28-10.85Q779.28-15.58 780.45-18.71 781.63-21.85 783.78-23.4 785.93-24.95 788.83-24.95L788.83-24.95Q791.83-24.95 793.84-23.61 795.85-22.28 796.87-19.85 797.88-17.43 797.88-14.2L797.88-14.2 797.88 0ZM781.23 0L775.33 0 775.33-24.25 780.48-24.25 781.23-19.45 781.23 0ZM815.53 0.7L815.53 0.7Q812.03 0.7 809.51-0.26 807-1.23 805.65-3.04 804.3-4.85 804.28-7.4L804.28-7.4 809.73-7.4Q809.8-5.6 811.15-4.78 812.5-3.95 814.83-3.95L814.83-3.95Q816.1-3.95 817.09-4.33 818.08-4.7 818.63-5.35 819.18-6 819.18-6.8L819.18-6.8Q819.18-7.83 818.44-8.41 817.7-9 816.08-9.5L816.08-9.5 810.78-11.4Q807.93-12.43 806.4-14.1 804.88-15.78 804.88-18.1L804.88-18.1Q804.88-21.18 807.66-23.06 810.45-24.95 815.13-24.95L815.13-24.95Q819.78-24.95 822.31-22.91 824.85-20.88 824.93-17.75L824.93-17.75 819.38-17.75Q819.25-18.95 818.23-19.65 817.2-20.35 815.13-20.35L815.13-20.35Q813.25-20.35 812.19-19.59 811.13-18.82 811.13-17.8L811.13-17.8Q811.13-16.07 814.08-15.2L814.08-15.2 819.83-13.05Q822.63-12.1 824.18-10.6 825.73-9.1 825.73-6.8L825.73-6.8Q825.73-4.88 824.44-3.16 823.15-1.45 820.85-0.38 818.55 0.7 815.53 0.7Z" opacity="1" transform="matrix(1,0,0,1,0,0)" fill="#1e1d40" class="undefined-text-0" data-fill-palette-color="primary" id="text-0"></path></svg></g></svg></g><g transform="matrix(1,0,0,1,0,26.14557361835268)"><svg viewBox="0 0 395.52 14.100380562883714" height="14.100380562883714" width="395.52"><g transform="matrix(1,0,0,1,0,0)"><svg width="395.52" viewBox="3.8499999046325684 -38.45000076293945 1410.9300537109375 50.30000305175781" height="14.100380562883714" data-palette-color="#8d021f"><path d="M7.85 0L3.85 0 3.85-29.4Q3.85-31.55 4.48-32.98 5.1-34.4 6.15-35.23 7.2-36.05 8.5-36.43 9.8-36.8 11.1-36.8L11.1-36.8Q13.3-36.75 15.88-36.7 18.45-36.65 21.18-36.58 23.9-36.5 26.5-36.3L26.5-36.3 26.5-33.15 12.05-33.15Q10.05-33.15 8.95-32.05 7.85-30.95 7.85-28.8L7.85-28.8 7.85-19.25 24.3-19 24.3-15.95 7.85-15.7 7.85 0ZM76.43-31.45L73.63-31.45Q72.83-31.45 72.83-32.25L72.83-32.25 72.83-36.15Q72.83-36.95 73.63-36.95L73.63-36.95 76.43-36.95Q76.83-36.95 77-36.73 77.18-36.5 77.18-36.15L77.18-36.15 77.18-32.25Q77.18-31.45 76.43-31.45L76.43-31.45ZM76.98 0L73.03 0 73.03-26.7 76.98-26.7 76.98 0ZM129.4 0L125.45 0 125.45-26.7 128.55-26.7 129.4-23.75Q131.3-25.1 133.85-26.13 136.4-27.15 139.15-27.15L139.15-27.15Q142.1-27.15 143.9-25.9 145.7-24.65 146.55-22.6 147.4-20.55 147.4-18.15L147.4-18.15 147.4 0 143.45 0 143.45-17.7Q143.45-19.4 142.78-20.73 142.1-22.05 140.88-22.8 139.65-23.55 137.85-23.55L137.85-23.55Q136.2-23.55 134.78-23.23 133.35-22.9 132.08-22.33 130.8-21.75 129.4-20.95L129.4-20.95 129.4 0ZM204.38 0.3L204.38 0.3Q201.08 0.3 198.95-1.13 196.83-2.55 195.8-5.53 194.78-8.5 194.78-13.15L194.78-13.15Q194.78-18.1 195.78-21.18 196.78-24.25 198.98-25.65 201.18-27.05 204.88-27.05L204.88-27.05Q207.13-27.05 209.28-26.55 211.43-26.05 213.08-25.45L213.08-25.45 213.08-38.15 217.03-38.15 217.03 0 213.83 0 213.08-2.7Q212.33-2.05 210.85-1.35 209.38-0.65 207.65-0.18 205.93 0.3 204.38 0.3ZM205.53-2.95L205.53-2.95Q207.83-2.95 209.7-3.68 211.58-4.4 213.08-5.2L213.08-5.2 213.08-22.65Q211.28-23.2 209.63-23.58 207.98-23.95 205.93-23.95L205.93-23.95Q203.38-23.95 201.78-23 200.18-22.05 199.45-19.73 198.73-17.4 198.73-13.3L198.73-13.3Q198.73-9.6 199.4-7.3 200.08-5 201.58-3.98 203.08-2.95 205.53-2.95ZM329.98 11.85L326.88 11.85 330.28 0Q329.03-0.05 327.68-0.6 326.33-1.15 325.18-2.5 324.03-3.85 323.28-6.25L323.28-6.25 316.88-26.7 321.03-26.7 326.98-7.1Q327.53-5.55 328.16-4.8 328.78-4.05 329.43-3.75 330.08-3.45 330.56-3.43 331.03-3.4 331.13-3.4L331.13-3.4 337.98-26.7 342.03-26.7 332.28 6.9 329.98 11.85ZM398.26 0.3L398.26 0.3Q395.36 0.3 393.18-0.3 391.01-0.9 389.56-2.4 388.11-3.9 387.41-6.58 386.71-9.25 386.71-13.4L386.71-13.4Q386.71-17.6 387.41-20.28 388.11-22.95 389.56-24.43 391.01-25.9 393.18-26.48 395.36-27.05 398.26-27.05L398.26-27.05Q401.16-27.05 403.33-26.45 405.51-25.85 406.96-24.38 408.41-22.9 409.13-20.23 409.86-17.55 409.86-13.4L409.86-13.4Q409.86-9.2 409.13-6.53 408.41-3.85 406.98-2.38 405.56-0.9 403.36-0.3 401.16 0.3 398.26 0.3ZM398.26-2.95L398.26-2.95Q400.11-2.95 401.53-3.3 402.96-3.65 403.91-4.7 404.86-5.75 405.36-7.85 405.86-9.95 405.86-13.4L405.86-13.4Q405.86-16.9 405.36-18.95 404.86-21 403.91-22.05 402.96-23.1 401.53-23.45 400.11-23.8 398.26-23.8L398.26-23.8Q396.36-23.8 394.96-23.45 393.56-23.1 392.61-22.05 391.66-21 391.16-18.95 390.66-16.9 390.66-13.4L390.66-13.4Q390.66-9.95 391.16-7.85 391.66-5.75 392.61-4.7 393.56-3.65 394.96-3.3 396.36-2.95 398.26-2.95ZM465.33 0.3L465.33 0.3Q461.48 0.3 459.41-1.7 457.33-3.7 457.33-7.9L457.33-7.9 457.33-26.7 461.28-26.7 461.28-8.9Q461.28-5.55 462.81-4.38 464.33-3.2 467.08-3.2L467.08-3.2Q469.43-3.2 471.38-3.88 473.33-4.55 475.38-5.75L475.38-5.75 475.38-26.7 479.33-26.7 479.33 0 476.23 0 475.38-2.95Q473.33-1.65 470.76-0.68 468.18 0.3 465.33 0.3ZM531.61 0L527.66 0 527.66-26.7 530.66-26.7 531.61-22.05Q533.41-24.2 535.64-25.6 537.86-27 540.76-27L540.76-27Q541.46-27 542.09-26.95 542.71-26.9 543.26-26.75L543.26-26.75 543.26-22.7Q542.61-22.8 541.86-22.88 541.11-22.95 540.36-22.95L540.36-22.95Q538.51-22.95 537.06-22.5 535.61-22.05 534.31-21.15 533.01-20.25 531.61-18.95L531.61-18.95 531.61 0ZM647.46 11.85L643.51 11.85 643.51-26.7 646.71-26.7 647.46-23.95Q648.36-24.6 649.79-25.33 651.21-26.05 652.89-26.55 654.56-27.05 656.21-27.05L656.21-27.05Q658.81-27.05 660.64-25.93 662.46-24.8 663.61-22.9 664.76-21 665.26-18.55 665.76-16.1 665.76-13.4L665.76-13.4Q665.76-8.9 664.74-5.83 663.71-2.75 661.61-1.2 659.51 0.35 656.21 0.35L656.21 0.35Q653.96 0.35 651.69-0.38 649.41-1.1 647.46-2.2L647.46-2.2 647.46 11.85ZM655.11-3L655.11-3Q657.01-3 658.51-3.95 660.01-4.9 660.91-7.18 661.81-9.45 661.81-13.4L661.81-13.4Q661.81-17.15 660.86-19.43 659.91-21.7 658.41-22.73 656.91-23.75 655.11-23.75L655.11-23.75Q652.81-23.75 650.89-23.03 648.96-22.3 647.46-21.5L647.46-21.5 647.46-5.15Q649.21-4.2 651.19-3.6 653.16-3 655.11-3ZM723.49 0.3L723.49 0.3Q719.29 0.3 716.87-0.95 714.44-2.2 713.39-5.2 712.34-8.2 712.34-13.4L712.34-13.4Q712.34-18.7 713.42-21.68 714.49-24.65 716.94-25.85 719.39-27.05 723.54-27.05L723.54-27.05Q727.09-27.05 729.32-26.25 731.54-25.45 732.62-23.53 733.69-21.6 733.69-18.2L733.69-18.2Q733.69-15.85 732.77-14.43 731.84-13 730.12-12.38 728.39-11.75 726.04-11.75L726.04-11.75 716.29-11.75Q716.34-8.5 716.99-6.53 717.64-4.55 719.37-3.68 721.09-2.8 724.44-2.8L724.44-2.8 733.04-2.8 733.04-0.4Q730.74-0.1 728.54 0.1 726.34 0.3 723.49 0.3ZM716.24-14.35L716.24-14.35 725.74-14.35Q727.99-14.35 729.07-15.18 730.14-16 730.14-18.15L730.14-18.15Q730.14-20.45 729.47-21.73 728.79-23 727.37-23.53 725.94-24.05 723.54-24.05L723.54-24.05Q720.74-24.05 719.14-23.23 717.54-22.4 716.89-20.3 716.24-18.2 716.24-14.35ZM785.17 0L781.22 0 781.22-26.7 784.22-26.7 785.17-22.05Q786.97-24.2 789.19-25.6 791.42-27 794.32-27L794.32-27Q795.02-27 795.64-26.95 796.27-26.9 796.82-26.75L796.82-26.75 796.82-22.7Q796.17-22.8 795.42-22.88 794.67-22.95 793.92-22.95L793.92-22.95Q792.07-22.95 790.62-22.5 789.17-22.05 787.87-21.15 786.57-20.25 785.17-18.95L785.17-18.95 785.17 0ZM848.09 0L844.14 0 844.14-23.45 840.04-23.45 840.04-26 844.14-26.7 844.14-29.75Q844.14-32.6 844.84-34.52 845.54-36.45 847.19-37.45 848.84-38.45 851.79-38.45L851.79-38.45Q853.54-38.45 854.77-38.27 855.99-38.1 856.94-37.95L856.94-37.95 856.94-35.15 852.49-35.15Q850.69-35.15 849.74-34.58 848.79-34 848.44-32.83 848.09-31.65 848.09-29.95L848.09-29.95 848.09-26.7 856.39-26.7 856.39-23.45 848.09-23.45 848.09 0ZM912.17 0.3L912.17 0.3Q907.97 0.3 905.54-0.95 903.12-2.2 902.07-5.2 901.02-8.2 901.02-13.4L901.02-13.4Q901.02-18.7 902.09-21.68 903.17-24.65 905.62-25.85 908.07-27.05 912.22-27.05L912.22-27.05Q915.77-27.05 917.99-26.25 920.22-25.45 921.29-23.53 922.37-21.6 922.37-18.2L922.37-18.2Q922.37-15.85 921.44-14.43 920.52-13 918.79-12.38 917.07-11.75 914.72-11.75L914.72-11.75 904.97-11.75Q905.02-8.5 905.67-6.53 906.32-4.55 908.04-3.68 909.77-2.8 913.12-2.8L913.12-2.8 921.72-2.8 921.72-0.4Q919.42-0.1 917.22 0.1 915.02 0.3 912.17 0.3ZM904.92-14.35L904.92-14.35 914.42-14.35Q916.67-14.35 917.74-15.18 918.82-16 918.82-18.15L918.82-18.15Q918.82-20.45 918.14-21.73 917.47-23 916.04-23.53 914.62-24.05 912.22-24.05L912.22-24.05Q909.42-24.05 907.82-23.23 906.22-22.4 905.57-20.3 904.92-18.2 904.92-14.35ZM979.6 0.3L979.6 0.3Q977.35 0.3 975.4-0.3 973.45-0.9 972-2.4 970.55-3.9 969.75-6.55 968.95-9.2 968.95-13.3L968.95-13.3Q968.95-17.45 969.7-20.13 970.45-22.8 971.85-24.3 973.25-25.8 975.25-26.4 977.25-27 979.7-27L979.7-27Q981.7-27 984.05-26.83 986.4-26.65 988.55-26.3L988.55-26.3 988.55-23.95 980.75-23.95Q978.2-23.95 976.45-23.1 974.7-22.25 973.8-19.93 972.9-17.6 972.9-13.2L972.9-13.2Q972.9-8.95 973.85-6.7 974.8-4.45 976.55-3.63 978.3-2.8 980.8-2.8L980.8-2.8 988.95-2.8 988.95-0.5Q987.8-0.3 986.27-0.1 984.75 0.1 983.05 0.2 981.35 0.3 979.6 0.3ZM1047.77 0L1044.12 0Q1041.52 0 1039.82-0.85 1038.12-1.7 1037.32-3.6 1036.52-5.5 1036.57-8.65L1036.57-8.65 1036.72-23.45 1032.47-23.45 1032.47-26 1036.77-26.7 1037.42-34.15 1040.47-34.15 1040.47-26.7 1048.17-26.7 1048.17-23.45 1040.47-23.45 1040.47-8.65Q1040.47-6.9 1040.85-5.85 1041.22-4.8 1041.85-4.25 1042.47-3.7 1043.17-3.48 1043.87-3.25 1044.52-3.2L1044.52-3.2 1047.77-2.9 1047.77 0ZM1158.07 0.3L1158.07 0.3Q1157.07 0.3 1155.62 0.25 1154.17 0.2 1152.6 0.1 1151.02 0 1149.75-0.13 1148.47-0.25 1147.77-0.4L1147.77-0.4 1147.77-2.8 1158.72-2.8Q1160.37-2.8 1161.57-3.05 1162.77-3.3 1163.45-4.15 1164.12-5 1164.12-6.7L1164.12-6.7 1164.12-7.9Q1164.12-9.65 1162.97-10.63 1161.82-11.6 1159.27-11.6L1159.27-11.6 1155.52-11.6Q1153.17-11.6 1151.35-12.2 1149.52-12.8 1148.52-14.25 1147.52-15.7 1147.52-18.25L1147.52-18.25 1147.52-19.65Q1147.52-22.15 1148.5-23.75 1149.47-25.35 1151.55-26.15 1153.62-26.95 1156.92-26.95L1156.92-26.95Q1158.32-26.95 1160.15-26.85 1161.97-26.75 1163.72-26.58 1165.47-26.4 1166.57-26.2L1166.57-26.2 1166.57-23.8 1156.27-23.8Q1153.72-23.8 1152.35-22.95 1150.97-22.1 1150.97-19.65L1150.97-19.65 1150.97-18.55Q1150.97-17 1151.62-16.23 1152.27-15.45 1153.45-15.2 1154.62-14.95 1156.17-14.95L1156.17-14.95 1159.97-14.95Q1163.62-14.95 1165.62-13.25 1167.62-11.55 1167.62-8.35L1167.62-8.35 1167.62-6.5Q1167.62-3.8 1166.4-2.33 1165.17-0.85 1163.05-0.28 1160.92 0.3 1158.07 0.3ZM1227.25 0L1223.6 0Q1221 0 1219.3-0.85 1217.6-1.7 1216.8-3.6 1216-5.5 1216.05-8.65L1216.05-8.65 1216.2-23.45 1211.95-23.45 1211.95-26 1216.25-26.7 1216.9-34.15 1219.95-34.15 1219.95-26.7 1227.65-26.7 1227.65-23.45 1219.95-23.45 1219.95-8.65Q1219.95-6.9 1220.33-5.85 1220.7-4.8 1221.33-4.25 1221.95-3.7 1222.65-3.48 1223.35-3.25 1224-3.2L1224-3.2 1227.25-2.9 1227.25 0ZM1279.18 0.3L1279.18 0.3Q1276.23 0.3 1274.33-1.45 1272.43-3.2 1272.43-6.4L1272.43-6.4 1272.43-8.3Q1272.43-11.45 1274.5-13.4 1276.58-15.35 1280.78-15.35L1280.78-15.35 1289.83-15.35 1289.83-18.65Q1289.83-20.3 1289.25-21.48 1288.68-22.65 1287.2-23.3 1285.73-23.95 1282.93-23.95L1282.93-23.95 1274.63-23.95 1274.63-26.3Q1276.38-26.6 1278.7-26.85 1281.03-27.1 1284.18-27.1L1284.18-27.1Q1287.43-27.15 1289.58-26.3 1291.73-25.45 1292.75-23.63 1293.78-21.8 1293.78-18.85L1293.78-18.85 1293.78 0 1290.73 0 1289.98-3.05Q1289.78-2.85 1288.75-2.35 1287.73-1.85 1286.15-1.23 1284.58-0.6 1282.75-0.15 1280.93 0.3 1279.18 0.3ZM1280.83-2.65L1280.83-2.65Q1281.73-2.6 1282.88-2.85 1284.03-3.1 1285.23-3.43 1286.43-3.75 1287.45-4.1 1288.48-4.45 1289.13-4.7 1289.78-4.95 1289.83-4.95L1289.83-4.95 1289.83-13.35 1281.68-13Q1278.83-12.9 1277.6-11.6 1276.38-10.3 1276.38-8.25L1276.38-8.25 1276.38-7.05Q1276.38-5.45 1277.05-4.48 1277.73-3.5 1278.75-3.1 1279.78-2.7 1280.83-2.65ZM1352.35 11.85L1349.25 11.85 1352.65 0Q1351.4-0.05 1350.05-0.6 1348.7-1.15 1347.55-2.5 1346.4-3.85 1345.65-6.25L1345.65-6.25 1339.25-26.7 1343.4-26.7 1349.35-7.1Q1349.9-5.55 1350.53-4.8 1351.15-4.05 1351.8-3.75 1352.45-3.45 1352.93-3.43 1353.4-3.4 1353.5-3.4L1353.5-3.4 1360.35-26.7 1364.4-26.7 1354.65 6.9 1352.35 11.85ZM1414.18-9.95L1411.33-9.95 1410.83-36.75 1414.78-36.75 1414.18-9.95ZM1413.88 0.05L1411.63 0.05Q1410.83 0.05 1410.83-0.75L1410.83-0.75 1410.83-4.75Q1410.83-5.55 1411.63-5.55L1411.63-5.55 1413.88-5.55Q1414.68-5.55 1414.68-4.75L1414.68-4.75 1414.68-0.75Q1414.68-0.35 1414.43-0.15 1414.18 0.05 1413.88 0.05L1413.88 0.05Z" opacity="1" transform="matrix(1,0,0,1,0,0)" fill="#8d021f" class="undefined-text-1" data-fill-palette-color="secondary" id="text-1"></path></svg></g></svg></g></svg></g></svg></g></svg></g></svg></g></svg></g></svg></g><defs></defs></svg><rect width="395.52" height="247.2" fill="none" stroke="none" visibility="hidden"></rect></g></svg></g></svg>