<svg width="999" height="371" viewBox="0 0 999 371" fill="none" xmlns="http://www.w3.org/2000/svg">
<path d="M142.17 370.796C117.571 370.796 94.9055 366.488 74.175 357.877C53.4445 349.336 36.6563 336.306 23.8079 318.787C10.9594 301.267 4.06357 279.003 3.11267 251.997H66.6183C66.6183 265.648 70.0133 276.851 76.8032 285.611C83.52 294.371 92.5699 300.904 103.955 305.209C115.417 309.517 127.97 311.669 141.623 311.671C154.761 311.671 166.477 309.918 176.771 306.415C187.137 302.985 195.274 298.021 201.186 291.524C207.098 285.026 210.055 277.326 210.057 268.42C210.057 258.936 207.762 251.097 203.169 244.904H278.506C279.957 251.609 280.681 258.716 280.681 266.23C280.681 287.546 275.316 306.014 264.583 321.634C253.781 337.255 238.087 349.336 217.503 357.877C196.845 366.49 171.734 370.796 142.17 370.796V370.796ZM9.68318 97.6091C9.68318 68.7745 21.1065 45.4158 43.9532 27.5329C66.7268 9.65006 98.5553 0.706104 139.434 0.708626C179.217 0.708626 209.984 9.97796 231.736 28.5191C253.415 46.9872 265.716 72.7547 268.634 105.822H205.129C202.793 91.7322 196.407 80.4552 185.967 71.9879C175.6 63.5206 160.091 59.2858 139.434 59.2858C121.185 59.2858 106.768 63.0818 96.1818 70.6738C85.5984 78.1927 80.3041 87.7193 80.3067 99.2511C80.3067 109.106 83.6285 116.917 90.2696 122.683C91.8208 123.997 93.5662 125.304 95.5058 126.6H13.6583C11.0074 117.911 9.68318 108.248 9.68318 97.6091V97.6091ZM491.237 370.796C466.564 370.796 443.864 366.488 423.131 357.877C402.4 349.336 385.612 336.306 372.764 318.787C359.915 301.267 353.055 279.003 352.179 251.997H415.577C415.577 265.648 418.971 276.851 425.759 285.611C432.476 294.371 441.563 300.904 453.022 305.209C464.41 309.517 476.928 311.669 490.579 311.671C503.79 311.671 515.544 309.918 525.837 306.415C536.131 302.985 544.232 298.021 550.144 291.524C556.13 285.026 559.124 277.326 559.124 268.42C559.124 258.936 556.829 251.097 552.235 244.904H627.56C629.018 251.609 629.747 258.716 629.747 266.23C629.747 287.546 624.345 306.014 613.542 321.634C602.812 337.255 587.118 349.336 566.459 357.877C545.874 366.49 520.8 370.796 491.237 370.796V370.796ZM358.75 97.6091C358.75 68.7745 370.138 45.4158 392.911 27.5329C415.758 9.65006 447.622 0.706104 488.5 0.708626C528.284 0.708626 559.015 9.97796 580.694 28.5191C602.446 46.9872 614.783 72.7547 617.703 105.822H554.195C551.786 91.7322 545.4 80.4552 535.034 71.9879C524.594 63.5206 509.084 59.2858 488.5 59.2858C470.252 59.2858 455.834 63.0818 445.248 70.6738C434.592 78.1927 429.262 87.7193 429.262 99.2511C429.262 109.106 432.619 116.917 439.336 122.683C440.87 123.997 442.6 125.304 444.527 126.6H362.725C360.074 117.911 358.75 108.248 358.75 97.6091ZM746.029 363.133H677.595L717.855 244.904H957.057L995.675 363.133H927.788L903.153 286.487H771.214L746.029 363.133ZM798.585 7.82394H879.611L918.411 126.6H851.566L838.003 85.0179L824.292 126.6H758.141L798.585 7.82394Z" fill="#D90D32"/>
<g clip-path="url(#clip0_1_35)">
<g clip-path="url(#clip1_1_35)">
<g clip-path="url(#clip2_1_35)">
<g clip-path="url(#clip3_1_35)">
<g clip-path="url(#clip4_1_35)">
<g clip-path="url(#clip5_1_35)">
<path d="M16.0357 179.022C13.3108 179.022 10.8003 178.545 8.50403 177.591C6.20775 176.645 4.34809 175.202 2.92505 173.261C1.502 171.321 0.737924 168.855 0.632812 165.863H7.66718C7.66718 167.375 8.04316 168.616 8.79511 169.586C9.53897 170.557 10.5416 171.28 11.8029 171.757C13.0723 172.234 14.463 172.473 15.975 172.473C17.4304 172.473 18.7281 172.279 19.8682 171.891C21.0163 171.511 21.9178 170.961 22.5728 170.241C23.2277 169.522 23.5552 168.669 23.5552 167.682C23.5552 166.364 23.1549 165.333 22.3545 164.59C21.5621 163.838 20.2846 163.15 18.5219 162.528L10.7599 159.435C7.72782 158.238 5.40325 156.852 3.78615 155.275C2.16905 153.698 1.36051 151.527 1.36051 148.762C1.36051 145.568 2.62588 142.981 5.15664 141C7.67931 139.019 11.2046 138.029 15.7325 138.029C20.139 138.029 23.5471 139.056 25.9565 141.109C28.3579 143.155 29.7203 146.009 30.0438 149.672H23.0094C22.7507 148.111 22.0432 146.862 20.8869 145.924C19.7388 144.986 18.0206 144.517 15.7325 144.517C13.7111 144.517 12.1142 144.938 10.9418 145.779C9.76941 146.612 9.18321 147.667 9.18321 148.944C9.18321 150.036 9.5511 150.901 10.2869 151.54C11.0307 152.17 12.1789 152.781 13.7313 153.371L22.3423 156.706C25.2531 157.838 27.4887 159.261 29.0492 160.975C30.6017 162.698 31.3779 164.852 31.3779 167.44C31.3779 169.801 30.7836 171.846 29.595 173.577C28.3984 175.307 26.66 176.645 24.3799 177.591C22.0917 178.545 19.3103 179.022 16.0357 179.022ZM45.1677 143.365C43.777 143.365 42.6895 142.997 41.9052 142.262C41.129 141.518 40.7409 140.491 40.7409 139.181C40.7409 137.903 41.129 136.889 41.9052 136.137C42.6895 135.377 43.777 134.997 45.1677 134.997C46.5422 134.997 47.6256 135.377 48.418 136.137C49.2023 136.889 49.5945 137.903 49.5945 139.181C49.5945 140.491 49.2023 141.518 48.418 142.262C47.6256 142.997 46.5422 143.365 45.1677 143.365ZM48.7455 178.173H41.5898V148.641H48.7455V178.173ZM108.052 178.173H100.836V160.951C100.836 158.768 100.311 157.119 99.2595 156.003C98.2084 154.895 96.8339 154.341 95.1359 154.341C92.9933 154.341 91.3075 155.21 90.0785 156.949C88.8414 158.687 88.2229 161.315 88.2229 164.832H85.2514C85.2514 161.735 85.5385 159.112 86.1125 156.961C86.6947 154.81 87.5154 153.072 88.5746 151.746C89.6338 150.42 90.8789 149.45 92.3101 148.835C93.7493 148.221 95.3381 147.913 97.0764 147.913C99.4859 147.913 101.503 148.455 103.128 149.538C104.754 150.614 105.983 152.134 106.815 154.099C107.64 156.055 108.052 158.339 108.052 160.951V178.173ZM68.0294 178.173H60.8737V148.762H67.1197L67.9081 153.795C68.8783 151.831 70.1639 150.359 71.7649 149.381C73.3577 148.402 75.185 147.913 77.2468 147.913C79.6724 147.913 81.6979 148.455 83.323 149.538C84.9563 150.614 86.1813 152.134 86.9979 154.099C87.8145 156.055 88.2229 158.339 88.2229 160.951V178.173H81.0672V160.951C81.0672 158.768 80.5416 157.119 79.4905 156.003C78.4394 154.895 77.0649 154.341 75.3669 154.341C73.9358 154.341 72.6664 154.733 71.5587 155.518C70.459 156.31 69.5979 157.499 68.9754 159.083C68.3447 160.668 68.0294 162.645 68.0294 165.014V178.173ZM133.158 179.022C130.991 179.022 129.152 178.557 127.64 177.627C126.12 176.698 124.963 175.287 124.171 173.395C123.37 171.503 122.97 169.134 122.97 166.288H125.578C125.578 167.597 125.881 168.717 126.487 169.647C127.094 170.577 127.894 171.292 128.889 171.794C129.891 172.287 130.971 172.534 132.127 172.534C133.316 172.534 134.492 172.206 135.656 171.551C136.821 170.888 137.787 169.886 138.555 168.543C139.323 167.201 139.707 165.499 139.707 163.437C139.707 161.553 139.384 159.932 138.737 158.574C138.09 157.208 137.205 156.16 136.081 155.433C134.957 154.705 133.679 154.341 132.248 154.341C131.035 154.341 129.924 154.612 128.913 155.154C127.902 155.704 127.094 156.5 126.487 157.543C125.881 158.578 125.578 159.835 125.578 161.315H122.97C122.97 158.218 123.443 155.687 124.389 153.723C125.343 151.75 126.617 150.286 128.21 149.332C129.811 148.386 131.561 147.913 133.461 147.913C135.782 147.913 137.969 148.528 140.022 149.757C142.076 150.994 143.738 152.769 145.007 155.081C146.285 157.393 146.923 160.179 146.923 163.437C146.923 166.712 146.277 169.51 144.983 171.83C143.689 174.159 141.995 175.938 139.901 177.167C137.807 178.404 135.559 179.022 133.158 179.022ZM125.578 192.545H118.422V148.762H124.304L125.578 156.039V192.545ZM162.569 178.173H155.413V136.573H162.569V178.173ZM184.848 179.022C182.342 179.022 180.046 178.375 177.96 177.082C175.882 175.788 174.216 173.973 172.963 171.636C171.709 169.299 171.083 166.566 171.083 163.437C171.083 160.203 171.701 157.422 172.939 155.093C174.184 152.773 175.849 150.994 177.935 149.757C180.013 148.528 182.318 147.913 184.848 147.913C187.193 147.913 189.219 148.382 190.925 149.32C192.631 150.258 194.005 151.532 195.048 153.141C196.091 154.75 196.795 156.565 197.159 158.586C197.522 160.607 197.543 162.689 197.219 164.832H176.783V160.951H192.15L190.755 161.861C190.82 160.907 190.775 159.944 190.621 158.974C190.468 158.004 190.181 157.115 189.76 156.306C189.332 155.497 188.729 154.847 187.953 154.353C187.177 153.86 186.183 153.614 184.97 153.614C183.514 153.614 182.281 153.977 181.271 154.705C180.26 155.433 179.492 156.423 178.966 157.676C178.441 158.93 178.178 160.345 178.178 161.921V164.772C178.178 166.429 178.424 167.892 178.918 169.162C179.411 170.439 180.147 171.442 181.125 172.17C182.111 172.897 183.353 173.261 184.848 173.261C186.239 173.261 187.412 172.938 188.366 172.291C189.312 171.644 189.918 170.674 190.185 169.38H197.401C197.094 171.28 196.378 172.954 195.254 174.401C194.139 175.841 192.691 176.972 190.913 177.797C189.134 178.614 187.112 179.022 184.848 179.022ZM235.047 179.022C232.322 179.022 229.812 178.545 227.516 177.591C225.219 176.645 223.36 175.202 221.937 173.261C220.513 171.321 219.749 168.855 219.644 165.863H226.679C226.679 167.375 227.055 168.616 227.807 169.586C228.55 170.557 229.557 171.28 230.827 171.757C232.088 172.234 233.475 172.473 234.986 172.473C236.442 172.473 237.744 172.279 238.892 171.891C240.032 171.511 240.929 170.961 241.584 170.241C242.239 169.522 242.567 168.669 242.567 167.682C242.567 166.364 242.17 165.333 241.378 164.59C240.578 163.838 239.296 163.15 237.533 162.528L229.771 159.435C226.739 158.238 224.415 156.852 222.798 155.275C221.181 153.698 220.372 151.527 220.372 148.762C220.372 145.568 221.637 142.981 224.168 141C226.691 139.019 230.216 138.029 234.744 138.029C239.151 138.029 242.559 139.056 244.968 141.109C247.369 143.155 248.732 146.009 249.055 149.672H242.021C241.762 148.111 241.055 146.862 239.898 145.924C238.75 144.986 237.032 144.517 234.744 144.517C232.723 144.517 231.126 144.938 229.953 145.779C228.781 146.612 228.195 147.667 228.195 148.944C228.195 150.036 228.567 150.901 229.31 151.54C230.046 152.17 231.19 152.781 232.743 153.371L241.354 156.706C244.265 157.838 246.5 159.261 248.061 160.975C249.613 162.698 250.389 164.852 250.389 167.44C250.389 169.801 249.795 171.846 248.606 173.577C247.41 175.307 245.671 176.645 243.391 177.591C241.103 178.545 238.322 179.022 235.047 179.022ZM269.952 179.022C268.214 179.022 266.621 178.699 265.174 178.052C263.726 177.405 262.574 176.415 261.717 175.08C260.86 173.746 260.432 172.048 260.432 169.987V140.94H267.587V169.744C267.587 172.17 268.739 173.383 271.044 173.383C271.747 173.383 272.455 173.302 273.166 173.14C273.87 172.978 274.678 172.736 275.592 172.412L276.623 177.445C275.491 177.89 274.387 178.266 273.312 178.573C272.244 178.873 271.125 179.022 269.952 179.022ZM275.592 153.492H256.308V148.762H275.592V153.492ZM303.511 178.173V148.641H310.667V178.173H303.511ZM283.317 167.44V148.641H290.473V166.712C290.473 168.628 290.946 170.067 291.892 171.03C292.846 171.992 294.152 172.473 295.81 172.473C297.225 172.473 298.51 172.105 299.666 171.369C300.831 170.625 301.764 169.534 302.468 168.095C303.163 166.647 303.511 164.852 303.511 162.71H305.451C305.451 166.308 304.987 169.287 304.057 171.648C303.127 174.017 301.841 175.788 300.2 176.96C298.567 178.133 296.679 178.719 294.536 178.719C292.434 178.719 290.534 178.343 288.836 177.591C287.138 176.847 285.792 175.646 284.797 173.989C283.811 172.331 283.317 170.148 283.317 167.44ZM332.801 179.022C330.335 179.022 328.083 178.371 326.045 177.07C324.016 175.76 322.399 173.928 321.194 171.575C319.997 169.223 319.399 166.469 319.399 163.316C319.399 160.203 319.977 157.491 321.133 155.178C322.298 152.858 323.854 151.067 325.803 149.805C327.759 148.544 329.93 147.913 332.316 147.913C334.499 147.913 336.387 148.435 337.979 149.478C339.58 150.513 340.805 152.053 341.654 154.099C342.503 156.144 342.928 158.651 342.928 161.618H340.684C340.684 160.082 340.369 158.772 339.738 157.689C339.115 156.605 338.291 155.776 337.264 155.202C336.245 154.628 335.141 154.341 333.953 154.341C332.514 154.341 331.244 154.713 330.145 155.457C329.045 156.209 328.18 157.256 327.549 158.598C326.927 159.94 326.615 161.513 326.615 163.316C326.615 165.176 326.927 166.793 327.549 168.167C328.18 169.542 329.045 170.613 330.145 171.381C331.244 172.15 332.493 172.534 333.892 172.534C335.024 172.534 336.108 172.226 337.143 171.612C338.186 170.989 339.035 170.124 339.689 169.016C340.352 167.901 340.684 166.607 340.684 165.135H342.928C342.928 168.224 342.467 170.795 341.545 172.849C340.623 174.903 339.394 176.443 337.858 177.47C336.322 178.505 334.636 179.022 332.801 179.022ZM347.9 178.173H342.018L340.684 170.896V136.573H347.9V178.173ZM370.143 179.022C367.637 179.022 365.345 178.375 363.267 177.082C361.181 175.788 359.511 173.973 358.258 171.636C357.005 169.299 356.378 166.566 356.378 163.437C356.378 160.203 357 157.422 358.246 155.093C359.491 152.773 361.152 150.994 363.23 149.757C365.316 148.528 367.621 147.913 370.143 147.913C372.488 147.913 374.518 148.382 376.232 149.32C377.938 150.258 379.312 151.532 380.355 153.141C381.39 154.75 382.09 156.565 382.454 158.586C382.817 160.607 382.838 162.689 382.514 164.832H362.078V160.951H377.457L376.062 161.861C376.119 160.907 376.074 159.944 375.929 158.974C375.775 158.004 375.484 157.115 375.055 156.306C374.635 155.497 374.037 154.847 373.26 154.353C372.476 153.86 371.478 153.614 370.265 153.614C368.809 153.614 367.576 153.977 366.566 154.705C365.555 155.433 364.787 156.423 364.261 157.676C363.736 158.93 363.473 160.345 363.473 161.921V164.772C363.473 166.429 363.724 167.892 364.225 169.162C364.718 170.439 365.454 171.442 366.432 172.17C367.411 172.897 368.648 173.261 370.143 173.261C371.542 173.261 372.715 172.938 373.661 172.291C374.615 171.644 375.221 170.674 375.48 169.38H382.696C382.397 171.28 381.685 172.954 380.562 174.401C379.438 175.841 377.986 176.972 376.208 177.797C374.429 178.614 372.407 179.022 370.143 179.022ZM418.656 178.173H411.501V160.951C411.501 158.768 410.975 157.119 409.924 156.003C408.873 154.895 407.498 154.341 405.8 154.341C404.369 154.341 403.1 154.733 401.992 155.518C400.893 156.31 400.031 157.499 399.409 159.083C398.778 160.668 398.463 162.645 398.463 165.014H396.098C396.098 161.19 396.575 158.012 397.529 155.481C398.475 152.942 399.817 151.046 401.556 149.793C403.294 148.54 405.335 147.913 407.68 147.913C410.106 147.913 412.131 148.455 413.757 149.538C415.39 150.614 416.615 152.134 417.431 154.099C418.248 156.055 418.656 158.339 418.656 160.951V178.173ZM398.463 178.173H391.307V148.762H397.553L398.463 154.584V178.173ZM439.032 179.022C437.293 179.022 435.701 178.699 434.253 178.052C432.806 177.405 431.654 176.415 430.797 175.08C429.94 173.746 429.511 172.048 429.511 169.987V140.94H436.667V169.744C436.667 172.17 437.819 173.383 440.123 173.383C440.827 173.383 441.534 173.302 442.246 173.14C442.949 172.978 443.758 172.736 444.671 172.412L445.702 177.445C444.57 177.89 443.467 178.266 442.391 178.573C441.324 178.873 440.204 179.022 439.032 179.022ZM444.671 153.492H425.387V148.762H444.671V153.492ZM463.98 179.022C461.15 179.022 458.72 178.634 456.69 177.858C454.661 177.074 453.1 175.95 452.009 174.486C450.917 173.023 450.36 171.26 450.335 169.198H456.945C457.01 170.654 457.588 171.713 458.679 172.376C459.771 173.047 461.255 173.383 463.131 173.383C464.165 173.383 465.079 173.229 465.872 172.922C466.672 172.623 467.295 172.21 467.739 171.685C468.184 171.159 468.406 170.573 468.406 169.926C468.406 169.093 468.107 168.442 467.509 167.973C466.919 167.496 465.964 167.056 464.647 166.651L458.219 164.347C455.914 163.514 454.148 162.423 452.919 161.072C451.681 159.714 451.063 158.097 451.063 156.221C451.063 153.731 452.191 151.726 454.447 150.206C456.703 148.677 459.718 147.913 463.494 147.913C467.254 147.913 470.161 148.738 472.215 150.387C474.268 152.029 475.323 154.115 475.38 156.646H468.649C468.552 155.675 468.087 154.907 467.254 154.341C466.429 153.775 465.176 153.492 463.494 153.492C461.982 153.492 460.794 153.8 459.929 154.414C459.072 155.037 458.643 155.76 458.643 156.585C458.643 157.984 459.836 159.035 462.221 159.738L469.195 162.346C471.459 163.114 473.217 164.104 474.47 165.317C475.724 166.53 476.35 168.066 476.35 169.926C476.35 171.478 475.829 172.95 474.786 174.341C473.751 175.723 472.303 176.847 470.444 177.712C468.584 178.586 466.429 179.022 463.98 179.022ZM503.602 178.173H496.022L509.424 138.817H518.399L531.255 178.173H523.735L521.006 169.683H506.392L503.602 178.173ZM513.79 147.367L508.211 164.286H519.308L513.79 147.367ZM549.411 179.022C546.945 179.022 544.656 178.379 542.546 177.094C540.436 175.808 538.726 174.001 537.416 171.672C536.114 169.336 535.463 166.591 535.463 163.437C535.463 160.098 536.114 157.272 537.416 154.96C538.726 152.647 540.436 150.893 542.546 149.696C544.656 148.508 546.945 147.913 549.411 147.913C551.335 147.913 553.029 148.221 554.492 148.835C555.956 149.45 557.205 150.278 558.24 151.321C559.267 152.364 560.075 153.521 560.666 154.79C561.248 156.067 561.62 157.353 561.781 158.647L554.565 158.829C554.242 157.535 553.643 156.464 552.77 155.615C551.889 154.766 550.749 154.341 549.35 154.341C548.202 154.341 547.123 154.661 546.112 155.299C545.101 155.938 544.276 156.92 543.638 158.247C542.999 159.581 542.68 161.311 542.68 163.437C542.68 165.459 542.979 167.141 543.577 168.483C544.175 169.825 544.98 170.836 545.991 171.515C547.001 172.194 548.121 172.534 549.35 172.534C551.169 172.534 552.495 172.093 553.328 171.212C554.153 170.33 554.565 169.154 554.565 167.682H561.781C561.781 169.76 561.309 171.66 560.363 173.383C559.408 175.097 558.014 176.467 556.178 177.494C554.335 178.513 552.079 179.022 549.411 179.022ZM581.526 179.022C579.06 179.022 576.768 178.379 574.65 177.094C572.539 175.808 570.833 174.001 569.531 171.672C568.23 169.336 567.579 166.591 567.579 163.437C567.579 160.098 568.23 157.272 569.531 154.96C570.833 152.647 572.539 150.893 574.65 149.696C576.768 148.508 579.06 147.913 581.526 147.913C583.442 147.913 585.132 148.221 586.596 148.835C588.067 149.45 589.317 150.278 590.343 151.321C591.37 152.364 592.179 153.521 592.769 154.79C593.359 156.067 593.735 157.353 593.897 158.647L586.681 158.829C586.357 157.535 585.755 156.464 584.874 155.615C583.992 154.766 582.856 154.341 581.466 154.341C580.309 154.341 579.226 154.661 578.215 155.299C577.205 155.938 576.38 156.92 575.741 158.247C575.11 159.581 574.795 161.311 574.795 163.437C574.795 165.459 575.09 167.141 575.68 168.483C576.279 169.825 577.083 170.836 578.094 171.515C579.105 172.194 580.229 172.534 581.466 172.534C583.285 172.534 584.607 172.093 585.432 171.212C586.264 170.33 586.681 169.154 586.681 167.682H593.897C593.897 169.76 593.42 171.66 592.466 173.383C591.52 175.097 590.125 176.467 588.282 177.494C586.438 178.513 584.186 179.022 581.526 179.022ZM614.054 179.022C611.362 179.022 608.932 178.444 606.765 177.288C604.59 176.14 602.864 174.417 601.586 172.121C600.317 169.825 599.682 166.951 599.682 163.498C599.682 159.981 600.317 157.07 601.586 154.766C602.864 152.461 604.59 150.743 606.765 149.611C608.932 148.479 611.362 147.913 614.054 147.913C616.698 147.913 619.099 148.479 621.258 149.611C623.409 150.743 625.119 152.461 626.389 154.766C627.666 157.07 628.305 159.981 628.305 163.498C628.305 166.951 627.666 169.825 626.389 172.121C625.119 174.417 623.409 176.14 621.258 177.288C619.099 178.444 616.698 179.022 614.054 179.022ZM613.812 172.776C615.227 172.776 616.484 172.428 617.583 171.733C618.683 171.03 619.552 169.991 620.191 168.616C620.83 167.242 621.149 165.536 621.149 163.498C621.149 160.385 620.539 158.04 619.318 156.464C618.089 154.887 616.415 154.099 614.297 154.099C612.858 154.099 611.584 154.446 610.476 155.142C609.361 155.837 608.487 156.884 607.857 158.283C607.218 159.674 606.898 161.412 606.898 163.498C606.898 166.571 607.521 168.883 608.766 170.435C610.003 171.996 611.685 172.776 613.812 172.776ZM683.961 178.173H676.757V160.951C676.757 158.768 676.227 157.119 675.168 156.003C674.125 154.895 672.751 154.341 671.045 154.341C668.91 154.341 667.224 155.21 665.987 156.949C664.758 158.687 664.144 161.315 664.144 164.832H661.172C661.172 161.735 661.459 159.112 662.033 156.961C662.608 154.81 663.424 153.072 664.483 151.746C665.542 150.42 666.792 149.45 668.231 148.835C669.67 148.221 671.259 147.913 672.997 147.913C675.399 147.913 677.412 148.455 679.037 149.538C680.67 150.614 681.899 152.134 682.724 154.099C683.549 156.055 683.961 158.339 683.961 160.951V178.173ZM643.938 178.173H636.782V148.762H643.028L643.829 153.795C644.791 151.831 646.073 150.359 647.674 149.381C649.275 148.402 651.102 147.913 653.156 147.913C655.581 147.913 657.611 148.455 659.244 149.538C660.869 150.614 662.09 152.134 662.907 154.099C663.731 156.055 664.144 158.339 664.144 160.951V178.173H656.976V160.951C656.976 158.768 656.454 157.119 655.411 156.003C654.36 154.895 652.986 154.341 651.288 154.341C649.849 154.341 648.579 154.733 647.48 155.518C646.38 156.31 645.515 157.499 644.884 159.083C644.253 160.668 643.938 162.645 643.938 165.014V178.173ZM741.51 178.173H734.293V160.951C734.293 158.768 733.768 157.119 732.717 156.003C731.666 154.895 730.291 154.341 728.593 154.341C726.45 154.341 724.765 155.21 723.536 156.949C722.299 158.687 721.68 161.315 721.68 164.832H718.709C718.709 161.735 718.996 159.112 719.57 156.961C720.152 154.81 720.973 153.072 722.032 151.746C723.091 150.42 724.34 149.45 725.779 148.835C727.211 148.221 728.795 147.913 730.534 147.913C732.943 147.913 734.96 148.455 736.586 149.538C738.211 150.614 739.44 152.134 740.273 154.099C741.097 156.055 741.51 158.339 741.51 160.951V178.173ZM701.487 178.173H694.331V148.762H700.577L701.365 153.795C702.336 151.831 703.621 150.359 705.222 149.381C706.815 148.402 708.642 147.913 710.704 147.913C713.13 147.913 715.159 148.455 716.792 149.538C718.418 150.614 719.638 152.134 720.455 154.099C721.272 156.055 721.68 158.339 721.68 160.951V178.173H714.524V160.951C714.524 158.768 713.999 157.119 712.948 156.003C711.897 154.895 710.522 154.341 708.824 154.341C707.393 154.341 706.124 154.733 705.016 155.518C703.916 156.31 703.055 157.499 702.433 159.083C701.802 160.668 701.487 162.645 701.487 165.014V178.173ZM763.462 179.022C760.769 179.022 758.34 178.444 756.173 177.288C753.998 176.14 752.271 174.417 750.994 172.121C749.725 169.825 749.09 166.951 749.09 163.498C749.09 159.981 749.725 157.07 750.994 154.766C752.271 152.461 753.998 150.743 756.173 149.611C758.34 148.479 760.769 147.913 763.462 147.913C766.114 147.913 768.515 148.479 770.666 149.611C772.817 150.743 774.527 152.461 775.796 154.766C777.074 157.07 777.712 159.981 777.712 163.498C777.712 166.951 777.074 169.825 775.796 172.121C774.527 174.417 772.817 176.14 770.666 177.288C768.515 178.444 766.114 179.022 763.462 179.022ZM763.219 172.776C764.634 172.776 765.891 172.428 766.991 171.733C768.099 171.03 768.968 169.991 769.599 168.616C770.237 167.242 770.557 165.536 770.557 163.498C770.557 160.385 769.946 158.04 768.725 156.464C767.496 154.887 765.823 154.099 763.704 154.099C762.265 154.099 760.992 154.446 759.884 155.142C758.768 155.837 757.895 156.884 757.264 158.283C756.625 159.674 756.306 161.412 756.306 163.498C756.306 166.571 756.929 168.883 758.174 170.435C759.411 171.996 761.093 172.776 763.219 172.776ZM797.057 179.022C794.591 179.022 792.339 178.371 790.301 177.07C788.272 175.76 786.655 173.928 785.45 171.575C784.254 169.223 783.655 166.469 783.655 163.316C783.655 160.203 784.233 157.491 785.39 155.178C786.554 152.858 788.11 151.067 790.059 149.805C792.016 148.544 794.187 147.913 796.572 147.913C798.755 147.913 800.643 148.435 802.236 149.478C803.837 150.513 805.062 152.053 805.91 154.099C806.759 156.144 807.184 158.651 807.184 161.618H804.94C804.94 160.082 804.625 158.772 803.994 157.689C803.372 156.605 802.547 155.776 801.52 155.202C800.501 154.628 799.398 154.341 798.209 154.341C796.77 154.341 795.5 154.713 794.401 155.457C793.301 156.209 792.436 157.256 791.805 158.598C791.183 159.94 790.872 161.513 790.872 163.316C790.872 165.176 791.183 166.793 791.805 168.167C792.436 169.542 793.301 170.613 794.401 171.381C795.5 172.15 796.75 172.534 798.148 172.534C799.28 172.534 800.364 172.226 801.399 171.612C802.442 170.989 803.291 170.124 803.946 169.016C804.609 167.901 804.94 166.607 804.94 165.135H807.184C807.184 168.224 806.723 170.795 805.801 172.849C804.88 174.903 803.651 176.443 802.114 177.47C800.578 178.505 798.892 179.022 797.057 179.022ZM812.157 178.173H806.274L804.94 170.896V136.573H812.157V178.173ZM848.408 178.173H842.162L841.252 171.018V159.193C841.252 157.131 840.836 155.603 840.003 154.608C839.162 153.622 837.739 153.128 835.734 153.128C834.586 153.128 833.587 153.298 832.738 153.638C831.889 153.985 831.238 154.479 830.785 155.117C830.325 155.748 830.094 156.52 830.094 157.434H822.272C822.272 155.21 822.809 153.395 823.885 151.988C824.952 150.581 826.492 149.551 828.505 148.896C830.519 148.241 832.928 147.913 835.734 147.913C838.281 147.913 840.504 148.322 842.404 149.138C844.304 149.955 845.78 151.212 846.831 152.91C847.882 154.608 848.408 156.783 848.408 159.435V178.173ZM832.52 179.022C829.997 179.022 827.891 178.582 826.201 177.7C824.511 176.819 823.242 175.663 822.393 174.232C821.544 172.792 821.119 171.236 821.119 169.562C821.119 167.702 821.613 166.142 822.599 164.881C823.577 163.611 824.964 162.661 826.759 162.031C828.562 161.392 830.684 161.072 833.126 161.072C834.727 161.072 836.239 161.194 837.662 161.436C839.085 161.679 840.504 162.002 841.919 162.406V166.591C840.811 166.227 839.599 165.944 838.281 165.742C836.971 165.54 835.738 165.439 834.582 165.439C832.884 165.439 831.489 165.75 830.397 166.372C829.306 167.003 828.76 168.066 828.76 169.562C828.76 170.654 829.205 171.592 830.094 172.376C830.984 173.168 832.399 173.564 834.339 173.564C835.819 173.564 837.072 173.241 838.099 172.594C839.134 171.947 839.918 171.139 840.452 170.169C840.985 169.198 841.252 168.228 841.252 167.258H842.95C842.95 169.376 842.558 171.333 841.774 173.128C840.981 174.915 839.813 176.342 838.269 177.409C836.724 178.484 834.808 179.022 832.52 179.022ZM868.844 179.022C867.105 179.022 865.513 178.699 864.065 178.052C862.626 177.405 861.474 176.415 860.609 175.08C859.752 173.746 859.323 172.048 859.323 169.987V140.94H866.479V169.744C866.479 172.17 867.631 173.383 869.935 173.383C870.647 173.383 871.354 173.302 872.058 173.14C872.769 172.978 873.578 172.736 874.484 172.412L875.514 177.445C874.382 177.89 873.283 178.266 872.216 178.573C871.14 178.873 870.016 179.022 868.844 179.022ZM874.484 153.492H855.2V148.762H874.484V153.492ZM887 143.365C885.609 143.365 884.526 142.997 883.749 142.262C882.965 141.518 882.573 140.491 882.573 139.181C882.573 137.903 882.965 136.889 883.749 136.137C884.526 135.377 885.609 134.997 887 134.997C888.374 134.997 889.458 135.377 890.25 136.137C891.035 136.889 891.427 137.903 891.427 139.181C891.427 140.491 891.035 141.518 890.25 142.262C889.458 142.997 888.374 143.365 887 143.365ZM890.578 178.173H883.422V148.641H890.578V178.173ZM914.288 179.022C911.604 179.022 909.174 178.444 906.999 177.288C904.824 176.14 903.102 174.417 901.833 172.121C900.555 169.825 899.916 166.951 899.916 163.498C899.916 159.981 900.555 157.07 901.833 154.766C903.102 152.461 904.824 150.743 906.999 149.611C909.174 148.479 911.604 147.913 914.288 147.913C916.94 147.913 919.342 148.479 921.493 149.611C923.643 150.743 925.357 152.461 926.635 154.766C927.904 157.07 928.539 159.981 928.539 163.498C928.539 166.951 927.904 169.825 926.635 172.121C925.357 174.417 923.643 176.14 921.493 177.288C919.342 178.444 916.94 179.022 914.288 179.022ZM914.046 172.776C915.461 172.776 916.718 172.428 917.818 171.733C918.925 171.03 919.795 169.991 920.425 168.616C921.064 167.242 921.383 165.536 921.383 163.498C921.383 160.385 920.773 158.04 919.552 156.464C918.331 154.887 916.657 154.099 914.531 154.099C913.1 154.099 911.826 154.446 910.711 155.142C909.603 155.837 908.73 156.884 908.091 158.283C907.452 159.674 907.133 161.412 907.133 163.498C907.133 166.571 907.755 168.883 909 170.435C910.246 171.996 911.927 172.776 914.046 172.776ZM964.378 178.173H957.222V160.951C957.222 158.768 956.697 157.119 955.646 156.003C954.594 154.895 953.22 154.341 951.522 154.341C950.083 154.341 948.813 154.733 947.714 155.518C946.614 156.31 945.749 157.499 945.118 159.083C944.496 160.668 944.184 162.645 944.184 165.014H941.819C941.819 161.19 942.292 158.012 943.238 155.481C944.193 152.942 945.539 151.046 947.277 149.793C949.016 148.54 951.057 147.913 953.402 147.913C955.828 147.913 957.853 148.455 959.478 149.538C961.103 150.614 962.328 152.134 963.153 154.099C963.97 156.055 964.378 158.339 964.378 160.951V178.173ZM944.184 178.173H937.029V148.762H943.275L944.184 154.584V178.173ZM985.784 179.022C982.954 179.022 980.521 178.634 978.483 177.858C976.454 177.074 974.893 175.95 973.802 174.486C972.71 173.023 972.156 171.26 972.14 169.198H978.75C978.806 170.654 979.381 171.713 980.472 172.376C981.564 173.047 983.051 173.383 984.935 173.383C985.962 173.383 986.876 173.229 987.676 172.922C988.477 172.623 989.099 172.21 989.544 171.685C989.989 171.159 990.211 170.573 990.211 169.926C990.211 169.093 989.912 168.442 989.314 167.973C988.715 167.496 987.761 167.056 986.451 166.651L980.023 164.347C977.719 163.514 975.948 162.423 974.711 161.072C973.482 159.714 972.868 158.097 972.868 156.221C972.868 153.731 973.992 151.726 976.239 150.206C978.495 148.677 981.515 147.913 985.299 147.913C989.059 147.913 991.962 148.738 994.007 150.387C996.061 152.029 997.12 154.115 997.185 156.646H990.454C990.348 155.675 989.884 154.907 989.059 154.341C988.226 153.775 986.973 153.492 985.299 153.492C983.779 153.492 982.59 153.8 981.733 154.414C980.876 155.037 980.448 155.76 980.448 156.585C980.448 157.984 981.64 159.035 984.026 159.738L990.999 162.346C993.263 163.114 995.022 164.104 996.275 165.317C997.528 166.53 998.155 168.066 998.155 169.926C998.155 171.478 997.634 172.95 996.59 174.341C995.547 175.723 994.096 176.847 992.236 177.712C990.377 178.586 988.226 179.022 985.784 179.022Z" fill="#1E1D40"/>
</g>
</g>
<g clip-path="url(#clip6_1_35)">
<g clip-path="url(#clip7_1_35)">
<path d="M3.41868 228.129H0.590454V207.342C0.590454 206.328 0.738936 205.484 1.0359 204.81C1.32815 204.141 1.72174 203.611 2.21668 203.22C2.71162 202.833 3.26548 202.55 3.87827 202.371C4.49105 202.197 5.10383 202.109 5.71661 202.109C6.75363 202.133 7.8802 202.157 9.09634 202.18C10.3078 202.204 11.5569 202.232 12.8437 202.265C14.1259 202.303 15.3797 202.369 16.6053 202.463V204.69H6.38832C5.44557 204.69 4.71495 204.949 4.19644 205.468C3.67793 205.987 3.41868 206.752 3.41868 207.766V214.518L15.0498 214.695V216.852L3.41868 217.028V228.129ZM51.9086 205.892H49.9288C49.5517 205.892 49.3632 205.704 49.3632 205.327V202.569C49.3632 202.192 49.5517 202.003 49.9288 202.003H51.9086C52.0971 202.003 52.2315 202.055 52.3116 202.159C52.3965 202.267 52.4389 202.404 52.4389 202.569V205.327C52.4389 205.704 52.2621 205.892 51.9086 205.892ZM52.2975 228.129H49.5046V209.251H52.2975V228.129ZM89.3614 228.129H86.5685V209.251H88.7604L89.3614 211.337C90.257 210.7 91.3058 210.139 92.5078 209.654C93.7098 209.173 94.9589 208.933 96.2551 208.933C97.6457 208.933 98.7652 209.227 99.6137 209.816C100.462 210.406 101.087 211.183 101.487 212.15C101.888 213.116 102.088 214.165 102.088 215.296V228.129H99.2955V215.614C99.2955 214.813 99.1376 214.099 98.8218 213.472C98.5012 212.85 98.0534 212.362 97.4784 212.008C96.8986 211.655 96.1844 211.478 95.336 211.478C94.5582 211.478 93.8347 211.553 93.1653 211.704C92.4913 211.86 91.8549 212.072 91.2563 212.341C90.6529 212.614 90.0213 212.939 89.3614 213.316V228.129ZM142.376 228.341C140.821 228.341 139.541 228.004 138.537 227.33C137.538 226.661 136.795 225.624 136.31 224.219C135.829 222.819 135.589 221.023 135.589 218.831C135.589 216.498 135.824 214.606 136.296 213.154C136.767 211.707 137.521 210.653 138.558 209.993C139.595 209.333 140.986 209.003 142.73 209.003C143.791 209.003 144.828 209.121 145.841 209.357C146.854 209.592 147.75 209.852 148.528 210.135V201.155H151.321V228.129H149.058L148.528 226.22C148.174 226.526 147.649 226.845 146.951 227.175C146.258 227.505 145.504 227.78 144.688 228.002C143.878 228.228 143.107 228.341 142.376 228.341ZM143.19 226.043C144.274 226.043 145.256 225.871 146.138 225.527C147.024 225.188 147.821 224.83 148.528 224.452V212.114C147.679 211.855 146.866 211.636 146.088 211.457C145.311 211.282 144.439 211.195 143.472 211.195C142.27 211.195 141.292 211.419 140.538 211.867C139.784 212.315 139.235 213.085 138.891 214.179C138.551 215.277 138.382 216.793 138.382 218.725C138.382 220.469 138.539 221.883 138.855 222.968C139.176 224.052 139.69 224.834 140.397 225.315C141.104 225.801 142.035 226.043 143.19 226.043ZM231.183 236.508H228.991L231.395 228.129C230.806 228.106 230.193 227.964 229.556 227.705C228.92 227.446 228.331 226.998 227.789 226.362C227.247 225.725 226.799 224.841 226.445 223.71L221.92 209.251H224.855L229.062 223.109C229.321 223.84 229.599 224.382 229.896 224.735C230.188 225.089 230.487 225.336 230.794 225.478C231.1 225.619 231.367 225.695 231.593 225.704C231.814 225.718 231.949 225.725 231.996 225.725L236.839 209.251H239.703L232.809 233.008L231.183 236.508ZM279.46 228.341C278.094 228.341 276.896 228.2 275.869 227.917C274.846 227.634 273.993 227.139 273.309 226.432C272.626 225.725 272.119 224.74 271.789 223.477C271.459 222.218 271.294 220.611 271.294 218.655C271.294 216.675 271.459 215.053 271.789 213.79C272.119 212.531 272.626 211.553 273.309 210.856C273.993 210.163 274.846 209.68 275.869 209.406C276.896 209.138 278.094 209.003 279.46 209.003C280.827 209.003 282.022 209.145 283.045 209.428C284.073 209.71 284.928 210.198 285.612 210.891C286.295 211.589 286.807 212.567 287.146 213.825C287.49 215.089 287.662 216.698 287.662 218.655C287.662 220.634 287.49 222.254 287.146 223.512C286.807 224.775 286.3 225.753 285.626 226.446C284.957 227.144 284.103 227.634 283.066 227.917C282.029 228.2 280.827 228.341 279.46 228.341ZM279.46 226.043C280.333 226.043 281.103 225.961 281.773 225.796C282.447 225.631 283.008 225.301 283.455 224.806C283.903 224.311 284.245 223.569 284.481 222.579C284.716 221.589 284.834 220.281 284.834 218.655C284.834 217.005 284.716 215.697 284.481 214.73C284.245 213.764 283.903 213.034 283.455 212.539C283.008 212.044 282.447 211.714 281.773 211.549C281.103 211.384 280.333 211.301 279.46 211.301C278.565 211.301 277.787 211.384 277.127 211.549C276.467 211.714 275.913 212.044 275.466 212.539C275.018 213.034 274.676 213.764 274.44 214.73C274.205 215.697 274.087 217.005 274.087 218.655C274.087 220.281 274.205 221.589 274.44 222.579C274.676 223.569 275.018 224.311 275.466 224.806C275.913 225.301 276.467 225.631 277.127 225.796C277.787 225.961 278.565 226.043 279.46 226.043ZM326.883 228.341C325.068 228.341 323.673 227.87 322.697 226.927C321.717 225.984 321.226 224.523 321.226 222.543V209.251H324.019V221.836C324.019 223.415 324.38 224.481 325.101 225.032C325.817 225.588 326.824 225.867 328.12 225.867C329.228 225.867 330.241 225.706 331.16 225.386C332.08 225.07 333.022 224.629 333.989 224.064V209.251H336.782V228.129H334.59L333.989 226.043C333.022 226.656 331.933 227.191 330.722 227.648C329.506 228.11 328.226 228.341 326.883 228.341ZM373.746 228.129H370.954V209.251H373.075L373.746 212.539C374.595 211.525 375.545 210.688 376.596 210.029C377.642 209.369 378.849 209.039 380.216 209.039C380.546 209.039 380.859 209.05 381.156 209.074C381.449 209.098 381.724 209.145 381.984 209.215V212.079C381.677 212.032 381.347 211.989 380.994 211.952C380.64 211.919 380.287 211.902 379.933 211.902C379.061 211.902 378.283 212.008 377.6 212.22C376.916 212.433 376.268 212.751 375.655 213.175C375.043 213.599 374.406 214.118 373.746 214.73V228.129ZM455.659 236.508H452.866V209.251H455.129L455.659 211.195C456.083 210.889 456.632 210.564 457.306 210.219C457.976 209.88 458.706 209.592 459.498 209.357C460.285 209.121 461.068 209.003 461.846 209.003C463.071 209.003 464.115 209.267 464.978 209.795C465.836 210.328 466.536 211.042 467.078 211.938C467.62 212.833 468.009 213.858 468.244 215.013C468.48 216.168 468.598 217.382 468.598 218.655C468.598 220.776 468.358 222.56 467.877 224.007C467.391 225.459 466.654 226.55 465.664 227.281C464.674 228.011 463.401 228.377 461.846 228.377C460.785 228.377 459.72 228.205 458.65 227.86C457.575 227.521 456.578 227.092 455.659 226.574V236.508ZM461.068 226.008C461.963 226.008 462.765 225.784 463.472 225.336C464.179 224.888 464.745 224.127 465.169 223.052C465.593 221.982 465.805 220.517 465.805 218.655C465.805 216.887 465.581 215.466 465.133 214.391C464.686 213.321 464.108 212.543 463.401 212.058C462.694 211.577 461.916 211.337 461.068 211.337C459.984 211.337 458.989 211.506 458.084 211.846C457.174 212.19 456.366 212.55 455.659 212.927V224.488C456.484 224.936 457.363 225.301 458.296 225.584C459.225 225.867 460.149 226.008 461.068 226.008ZM509.416 228.341C507.437 228.341 505.876 228.047 504.736 227.457C503.59 226.868 502.77 225.867 502.275 224.452C501.78 223.038 501.533 221.106 501.533 218.655C501.533 216.156 501.787 214.205 502.296 212.8C502.801 211.4 503.63 210.417 504.785 209.852C505.94 209.286 507.496 209.003 509.452 209.003C511.125 209.003 512.487 209.192 513.539 209.569C514.585 209.946 515.363 210.587 515.872 211.492C516.376 212.402 516.628 213.658 516.628 215.261C516.628 216.368 516.412 217.257 515.978 217.926C515.539 218.6 514.915 219.084 514.104 219.376C513.289 219.673 512.327 219.821 511.219 219.821H504.326C504.349 221.353 504.514 222.583 504.82 223.512C505.127 224.445 505.688 225.117 506.503 225.527C507.314 225.942 508.509 226.149 510.088 226.149H516.169V227.846C515.085 227.988 514.024 228.106 512.987 228.2C511.95 228.294 510.76 228.341 509.416 228.341ZM504.29 217.983H511.007C512.068 217.983 512.853 217.787 513.362 217.396C513.866 217.01 514.118 216.31 514.118 215.296C514.118 214.212 513.96 213.368 513.645 212.765C513.324 212.166 512.829 211.742 512.16 211.492C511.486 211.247 510.583 211.124 509.452 211.124C508.132 211.124 507.095 211.318 506.341 211.704C505.586 212.095 505.056 212.786 504.75 213.776C504.443 214.766 504.29 216.168 504.29 217.983ZM553.028 228.129H550.235V209.251H552.356L553.028 212.539C553.876 211.525 554.824 210.688 555.87 210.029C556.921 209.369 558.13 209.039 559.497 209.039C559.827 209.039 560.138 209.05 560.43 209.074C560.727 209.098 561.006 209.145 561.265 209.215V212.079C560.958 212.032 560.628 211.989 560.275 211.952C559.921 211.919 559.568 211.902 559.214 211.902C558.342 211.902 557.565 212.008 556.881 212.22C556.198 212.433 555.549 212.751 554.937 213.175C554.324 213.599 553.688 214.118 553.028 214.73V228.129ZM597.516 228.129H594.723V211.549H591.824V209.746L594.723 209.251V207.094C594.723 205.751 594.888 204.627 595.218 203.722C595.548 202.812 596.101 202.121 596.879 201.65C597.657 201.179 598.741 200.943 600.132 200.943C600.957 200.943 601.659 200.985 602.239 201.07C602.814 201.15 603.325 201.226 603.773 201.296V203.276H600.627C599.778 203.276 599.13 203.41 598.682 203.679C598.234 203.953 597.928 204.365 597.763 204.916C597.598 205.473 597.516 206.151 597.516 206.953V209.251H603.384V211.549H597.516V228.129ZM642.824 228.341C640.844 228.341 639.281 228.047 638.136 227.457C636.995 226.868 636.177 225.867 635.682 224.452C635.188 223.038 634.94 221.106 634.94 218.655C634.94 216.156 635.192 214.205 635.697 212.8C636.206 211.4 637.038 210.417 638.193 209.852C639.347 209.286 640.903 209.003 642.859 209.003C644.532 209.003 645.892 209.192 646.939 209.569C647.99 209.946 648.768 210.587 649.272 211.492C649.781 212.402 650.036 213.658 650.036 215.261C650.036 216.368 649.817 217.257 649.378 217.926C648.944 218.6 648.32 219.084 647.504 219.376C646.694 219.673 645.734 219.821 644.627 219.821H637.733C637.756 221.353 637.921 222.583 638.228 223.512C638.534 224.445 639.093 225.117 639.904 225.527C640.719 225.942 641.916 226.149 643.495 226.149H649.576V227.846C648.492 227.988 647.431 228.106 646.394 228.2C645.357 228.294 644.167 228.341 642.824 228.341ZM637.698 217.983H644.415C645.475 217.983 646.258 217.787 646.762 217.396C647.271 217.01 647.526 216.31 647.526 215.296C647.526 214.212 647.365 213.368 647.045 212.765C646.729 212.166 646.234 211.742 645.56 211.492C644.891 211.247 643.99 211.124 642.859 211.124C641.539 211.124 640.502 211.318 639.748 211.704C638.994 212.095 638.464 212.786 638.157 213.776C637.851 214.766 637.698 216.168 637.698 217.983ZM690.501 228.341C689.44 228.341 688.45 228.2 687.531 227.917C686.612 227.634 685.81 227.139 685.127 226.432C684.443 225.725 683.913 224.747 683.536 223.498C683.159 222.249 682.97 220.658 682.97 218.725C682.97 216.769 683.147 215.159 683.501 213.896C683.854 212.638 684.361 211.655 685.021 210.948C685.681 210.241 686.482 209.746 687.425 209.463C688.368 209.18 689.416 209.039 690.571 209.039C691.514 209.039 692.539 209.079 693.647 209.159C694.755 209.244 695.815 209.369 696.829 209.534V211.195H691.314C690.112 211.195 689.098 211.395 688.273 211.796C687.448 212.197 686.824 212.944 686.4 214.038C685.975 215.136 685.763 216.722 685.763 218.796C685.763 220.799 685.987 222.331 686.435 223.392C686.883 224.452 687.519 225.176 688.344 225.563C689.169 225.954 690.171 226.149 691.349 226.149H697.112V227.776C696.569 227.87 695.938 227.964 695.217 228.058C694.5 228.153 693.741 228.223 692.94 228.271C692.139 228.318 691.325 228.341 690.501 228.341ZM738.701 228.129H736.12C734.894 228.129 733.881 227.929 733.079 227.528C732.278 227.127 731.689 226.479 731.312 225.584C730.935 224.688 730.758 223.498 730.781 222.013L730.888 211.549H727.883V209.746L730.923 209.251L731.383 203.983H733.539V209.251H738.983V211.549H733.539V222.013C733.539 222.838 733.629 223.498 733.808 223.993C733.982 224.488 734.218 224.865 734.515 225.124C734.807 225.383 735.118 225.565 735.448 225.669C735.778 225.777 736.096 225.843 736.403 225.867L738.701 226.079V228.129ZM816.689 228.341C816.217 228.341 815.64 228.329 814.957 228.306C814.273 228.282 813.561 228.247 812.821 228.2C812.076 228.153 811.405 228.099 810.806 228.037C810.203 227.981 809.736 227.917 809.406 227.846V226.149H817.148C817.926 226.149 818.598 226.09 819.163 225.973C819.729 225.855 820.172 225.596 820.493 225.195C820.809 224.794 820.967 224.193 820.967 223.392V222.543C820.967 221.719 820.695 221.075 820.153 220.613C819.611 220.156 818.739 219.927 817.537 219.927H814.886C813.778 219.927 812.795 219.786 811.937 219.503C811.075 219.22 810.408 218.737 809.936 218.054C809.465 217.37 809.229 216.427 809.229 215.225V214.235C809.229 213.057 809.46 212.091 809.922 211.337C810.38 210.582 811.098 210.017 812.079 209.64C813.055 209.263 814.32 209.074 815.876 209.074C816.536 209.074 817.297 209.098 818.16 209.145C819.017 209.192 819.859 209.255 820.684 209.336C821.509 209.42 822.18 209.51 822.699 209.604V211.301H815.416C814.214 211.301 813.29 211.502 812.644 211.902C811.994 212.303 811.669 213.081 811.669 214.235V215.013C811.669 215.744 811.822 216.291 812.128 216.654C812.435 217.021 812.866 217.264 813.422 217.382C813.974 217.5 814.615 217.559 815.345 217.559H818.032C819.753 217.559 821.084 217.959 822.027 218.761C822.97 219.562 823.441 220.717 823.441 222.225V223.533C823.441 224.806 823.154 225.789 822.579 226.482C821.999 227.179 821.209 227.662 820.21 227.931C819.206 228.205 818.032 228.341 816.689 228.341ZM865.603 228.129H863.022C861.797 228.129 860.783 227.929 859.982 227.528C859.181 227.127 858.591 226.479 858.214 225.584C857.837 224.688 857.66 223.498 857.684 222.013L857.79 211.549H854.785V209.746L857.825 209.251L858.285 203.983H860.441V209.251H865.886V211.549H860.441V222.013C860.441 222.838 860.531 223.498 860.71 223.993C860.885 224.488 861.12 224.865 861.417 225.124C861.709 225.383 862.021 225.565 862.351 225.669C862.681 225.777 862.999 225.843 863.305 225.867L865.603 226.079V228.129ZM902.32 228.341C900.93 228.341 899.787 227.929 898.891 227.104C897.996 226.279 897.548 225.112 897.548 223.604V222.261C897.548 220.776 898.036 219.574 899.011 218.655C899.992 217.735 901.472 217.276 903.452 217.276H909.851V214.943C909.851 214.165 909.714 213.498 909.44 212.942C909.172 212.39 908.689 211.961 907.991 211.655C907.298 211.348 906.292 211.195 904.972 211.195H899.103V209.534C899.928 209.392 900.887 209.263 901.981 209.145C903.079 209.027 904.371 208.968 905.856 208.968C907.388 208.944 908.66 209.133 909.674 209.534C910.687 209.934 911.434 210.564 911.915 211.421C912.401 212.284 912.643 213.411 912.643 214.801V228.129H910.487L909.957 225.973C909.862 226.067 909.572 226.232 909.087 226.468C908.606 226.703 907.993 226.967 907.249 227.259C906.509 227.556 905.707 227.811 904.845 228.023C903.987 228.235 903.145 228.341 902.32 228.341ZM903.487 226.255C903.911 226.279 904.394 226.232 904.937 226.114C905.479 225.996 906.032 225.86 906.598 225.704C907.164 225.553 907.687 225.395 908.168 225.23C908.653 225.065 909.049 224.924 909.356 224.806C909.662 224.688 909.827 224.629 909.851 224.629V218.69L904.088 218.937C902.745 218.985 901.783 219.315 901.203 219.927C900.628 220.54 900.341 221.33 900.341 222.296V223.144C900.341 223.899 900.499 224.504 900.814 224.962C901.135 225.423 901.536 225.749 902.016 225.937C902.502 226.126 902.992 226.232 903.487 226.255ZM954.056 236.508H951.864L954.268 228.129C953.679 228.106 953.066 227.964 952.43 227.705C951.793 227.446 951.204 226.998 950.662 226.362C950.12 225.725 949.672 224.841 949.318 223.71L944.793 209.251H947.728L951.935 223.109C952.194 223.84 952.472 224.382 952.769 224.735C953.061 225.089 953.36 225.336 953.667 225.478C953.973 225.619 954.24 225.695 954.466 225.704C954.687 225.718 954.822 225.725 954.869 225.725L959.712 209.251H962.576L955.682 233.008L954.056 236.508ZM997.773 221.094H995.758L995.404 202.145H998.197L997.773 221.094ZM997.561 228.165H995.97C995.593 228.165 995.404 227.976 995.404 227.599V224.771C995.404 224.394 995.593 224.205 995.97 224.205H997.561C997.938 224.205 998.127 224.394 998.127 224.771V227.599C998.127 227.787 998.068 227.929 997.95 228.023C997.832 228.117 997.702 228.165 997.561 228.165Z" fill="#8E8E8E"/>
</g>
</g>
</g>
</g>
</g>
</g>
<defs>
<clipPath id="clip0_1_35">
<rect width="997.607" height="101.511" fill="white" transform="translate(0.590393 134.997)"/>
</clipPath>
<clipPath id="clip1_1_35">
<rect width="997.607" height="101.511" fill="white" transform="translate(0.590393 134.997)"/>
</clipPath>
<clipPath id="clip2_1_35">
<rect width="997.607" height="101.511" fill="white" transform="translate(0.590393 134.997)"/>
</clipPath>
<clipPath id="clip3_1_35">
<rect width="997.607" height="101.511" fill="white" transform="translate(0.590393 134.997)"/>
</clipPath>
<clipPath id="clip4_1_35">
<rect width="997.607" height="57.5484" fill="white" transform="translate(0.590393 134.997)"/>
</clipPath>
<clipPath id="clip5_1_35">
<rect width="997.607" height="57.5484" fill="white" transform="translate(0.590393 134.997)"/>
</clipPath>
<clipPath id="clip6_1_35">
<rect width="997.607" height="35.5649" fill="white" transform="translate(0.590393 200.943)"/>
</clipPath>
<clipPath id="clip7_1_35">
<rect width="997.607" height="35.5649" fill="white" transform="translate(0.590393 200.943)"/>
</clipPath>
</defs>
</svg>
